<svg width="20" height="20" xmlns="http://www.w3.org/2000/svg"><g transform="translate(-.5 .5)" fill="#1976D2" fill-rule="nonzero"><path d="M13.088 6.078c1.281.295 2.678-.737 3.119-2.307.573-2.042-1.213-3.305-1.52-3.376-1.281-.295-2.678.737-3.119 2.307-.442 1.568.238 3.08 1.52 3.376z"/><ellipse cx="7.925" cy="2.903" rx="2.322" ry="2.903"/><path d="M17.69 5.685c-1.348.017-2.418 1.178-2.388 2.974.03 1.797 1.145 2.615 2.493 2.597 1.346-.018 2.416-.865 2.387-2.662-.038-2.34-2.17-2.914-2.492-2.91z"/><ellipse transform="rotate(-4.002 3.216 7.243)" cx="3.216" cy="7.243" rx="2.393" ry="2.934"/><path d="M16.456 12.43c-1.154-.918-2.133-1.665-3.663-3.59-.759-.951-1.631-1.074-2.545-1.074-.915 0-1.878.291-2.618 1.253s-1.58 1.902-3.212 3.134c-1.63 1.231-2.322 2.082-2.322 3.334 0 1.253.79 3.335 3.038 3.335 2.249 0 3.336-.448 5.114-.448S13.212 19 15.46 19c2.248 0 3.187-1.925 3.187-3.178s-.39-1.963-2.19-3.392z"/></g></svg>