<svg height="21" width="20" xmlns="http://www.w3.org/2000/svg"><path d="m10 .5c-5.515 0-10 4.485-10 10s4.485 10 10 10 10-4.485 10-10-4.485-10-10-10zm-4.257 11.07h-1.657l.454-2.094h1.59c1.032 0 1.278.51 1.278.91 0 .57-.368 1.184-1.664 1.184zm.575-3.15h-1.658l.453-2.095h1.59c1.033 0 1.279.51 1.279.91 0 .572-.369 1.185-1.665 1.185zm3.096 6.428h-1.657l.451-2.094h1.592c1.03 0 1.277.509 1.277.912 0 .569-.369 1.182-1.663 1.182zm.615-3.278h-1.659l.452-2.094h1.591c1.031 0 1.278.51 1.278.91 0 .57-.367 1.184-1.663 1.184zm.574-3.15h-1.658l.452-2.095h1.592c1.032 0 1.277.51 1.277.91 0 .572-.369 1.185-1.663 1.185zm3.29 5.152h-1.658l.454-2.094h1.59c1.032 0 1.276.51 1.276.91 0 .57-.366 1.184-1.662 1.184zm.616-3.28h-1.656l.452-2.095h1.592c1.03 0 1.276.51 1.276.912 0 .569-.368 1.182-1.664 1.182z" fill="#322a2a"/></svg>