<svg width="20" height="20" xmlns="http://www.w3.org/2000/svg"><g fill-rule="nonzero" fill="none"><path d="M9.78 14.77c-.979 0-1.89-.27-2.699-.81-.809-.539-1.416-1.213-1.82-2.056L1.213 4.89C.37 6.407 0 8.06 0 9.78c0 2.46.81 4.585 2.394 6.406 1.585 1.821 3.575 2.9 5.935 3.271l2.833-4.923c-.27.101-.776.236-1.383.236" fill="#82D889"/><path d="M6.71 5.733c.911-.709 1.923-1.012 3.07-1.012h8.396c-.877-1.484-2.057-2.563-3.541-3.406A9.374 9.374 0 009.779 0a9.73 9.73 0 00-4.282.978c-1.316.64-2.563 1.585-3.44 2.799L4.89 8.43c.27-1.079.91-1.99 1.82-2.697" fill="#E86438"/><path d="M18.816 6.104h-5.665c.978.977 1.653 2.259 1.653 3.675 0 1.046-.304 1.99-.877 2.866L9.88 19.558c2.664-.033 4.957-.978 6.846-2.9 1.888-1.922 2.832-4.215 2.832-6.879 0-1.248-.202-2.563-.742-3.675" fill="#FCE056"/><path d="M9.78 6.07c2.022 0 3.708 1.686 3.708 3.71 0 2.022-1.686 3.708-3.709 3.708S6.07 11.802 6.07 9.78s1.687-3.71 3.71-3.71" fill="#25B9E1"/></g></svg>