<?xml version="1.0" encoding="UTF-8"?>
<svg width="20px" height="20px" viewBox="0 0 20 20" version="1.1" xmlns="http://www.w3.org/2000/svg" xmlns:xlink="http://www.w3.org/1999/xlink">
    <title>microsoft-edge-1</title>
    <defs>
        <linearGradient x1="-7.97051215e-15%" y1="50.0129955%" x2="100.026435%" y2="50.0129955%" id="linearGradient-1">
            <stop stop-color="#0C59A4" offset="0%"></stop>
            <stop stop-color="#114A8B" offset="100%"></stop>
        </linearGradient>
        <linearGradient x1="73.7344244%" y1="24.7942842%" x2="35.0757035%" y2="83.1510351%" id="linearGradient-2">
            <stop stop-color="#1B9DE2" offset="0%"></stop>
            <stop stop-color="#1595DF" offset="16%"></stop>
            <stop stop-color="#0680D7" offset="67%"></stop>
            <stop stop-color="#0078D4" offset="100%"></stop>
        </linearGradient>
        <radialGradient cx="10.1019077%" cy="27.7890034%" fx="10.1019077%" fy="27.7890034%" r="118.835579%" gradientTransform="translate(0.101019,0.277890),scale(0.650000,1.000000),rotate(92.346670),translate(-0.101019,-0.277890)" id="radialGradient-3">
            <stop stop-color="#35C1F1" offset="0%"></stop>
            <stop stop-color="#34C1ED" offset="11%"></stop>
            <stop stop-color="#2FC2DF" offset="23%"></stop>
            <stop stop-color="#2BC3D2" offset="31%"></stop>
            <stop stop-color="#36C752" offset="67%"></stop>
        </radialGradient>
    </defs>
    <g id="Page-1" stroke="none" stroke-width="1" fill="none" fill-rule="evenodd">
        <g id="microsoft-edge-1" fill-rule="nonzero">
            <path d="M17.5333512,14.6411956 C17.2653369,14.791982 16.9889371,14.9248525 16.7057242,15.0390513 C15.8042433,15.4019107 14.849285,15.5867666 13.8867667,15.5847303 C10.1710825,15.5847303 6.93438546,12.8352177 6.93438546,9.30688759 C6.94407164,8.34325049 7.43765527,7.46066749 8.22450998,7 C4.86374739,7.15204678 4,10.9194282 4,13.1266407 C4,19.3673164 9.34659636,20 10.4985213,20 C11.1196342,20 12.0564075,19.805718 12.6186285,19.6148148 L12.721493,19.5776478 C14.8849793,18.7730591 16.7293657,17.2000825 17.9510908,15.1176088 C18.0280696,14.9871385 18.0129564,14.8171147 17.9143881,14.704702 C17.8158199,14.5922894 17.6589192,14.5661391 17.5333512,14.6411956 L17.5333512,14.6411956 Z" id="Path" fill="url(#linearGradient-1)"></path>
            <path d="M17.5333512,14.6411956 C17.2653369,14.791982 16.9889371,14.9248525 16.7057242,15.0390513 C15.8042433,15.4019107 14.849285,15.5867666 13.8867667,15.5847303 C10.1710825,15.5847303 6.93438546,12.8352177 6.93438546,9.30688759 C6.94407164,8.34325049 7.43765527,7.46066749 8.22450998,7 C4.86374739,7.15204678 4,10.9194282 4,13.1266407 C4,19.3673164 9.34659636,20 10.4985213,20 C11.1196342,20 12.0564075,19.805718 12.6186285,19.6148148 L12.721493,19.5776478 C14.8849793,18.7730591 16.7293657,17.2000825 17.9510908,15.1176088 C18.0280696,14.9871385 18.0129564,14.8171147 17.9143881,14.704702 C17.8158199,14.5922894 17.6589192,14.5661391 17.5333512,14.6411956 L17.5333512,14.6411956 Z" id="Path" fill="#1E5B9B" opacity="0.35"></path>
            <path d="M8.14935795,18.8036988 C7.46119729,18.3510451 6.86481466,17.7579217 6.39488682,17.0588161 C5.31069007,15.4845942 4.93842944,13.4830335 5.37786936,11.5905445 C5.81730929,9.69805544 7.02351588,8.10815009 8.67323038,7.24691699 C8.91394937,7.12672123 9.32517765,6.90922413 9.87219614,6.91985369 C10.6534533,6.92588201 11.3869732,7.31925745 11.8542702,7.98280942 C12.1658339,8.42367696 12.3376155,8.95780708 12.3449666,9.50855973 C12.3449666,9.49138891 14.2321418,3 6.17268467,3 C2.78564496,3 0.000402750387,6.4063643 0.000402750387,9.39490523 C-0.0129572081,10.9758037 0.306218743,12.5399959 0.934731925,13.9737915 C3.06090164,18.7814705 8.24709319,21.1401593 13,19.461096 C11.3729074,20.004777 9.60274034,19.7657214 8.15630177,18.8069694 L8.14935795,18.8036988 Z" id="Path" fill="url(#linearGradient-2)"></path>
            <path d="M8.14935795,18.8036988 C7.46119729,18.3510451 6.86481466,17.7579217 6.39488682,17.0588161 C5.31069007,15.4845942 4.93842944,13.4830335 5.37786936,11.5905445 C5.81730929,9.69805544 7.02351588,8.10815009 8.67323038,7.24691699 C8.91394937,7.12672123 9.32517765,6.90922413 9.87219614,6.91985369 C10.6534533,6.92588201 11.3869732,7.31925745 11.8542702,7.98280942 C12.1658339,8.42367696 12.3376155,8.95780708 12.3449666,9.50855973 C12.3449666,9.49138891 14.2321418,3 6.17268467,3 C2.78564496,3 0.000402750387,6.4063643 0.000402750387,9.39490523 C-0.0129572081,10.9758037 0.306218743,12.5399959 0.934731925,13.9737915 C3.06090164,18.7814705 8.24709319,21.1401593 13,19.461096 C11.3729074,20.004777 9.60274034,19.7657214 8.15630177,18.8069694 L8.14935795,18.8036988 Z" id="Path" fill="#1E79B7" opacity="0.41"></path>
            <path d="M11.9000375,11.350856 C11.8367602,11.4309205 11.6422411,11.5414858 11.6422411,11.7824417 C11.6422411,11.9814591 11.7750453,12.1728514 12.0109681,12.3337429 C13.1343354,13.0962617 15.2521718,12.9956093 15.2576402,12.9956093 C16.0900302,12.9936593 16.9066432,12.7737832 17.6223362,12.358906 C19.0914384,11.5216166 19.996046,9.98722076 19.9995313,8.32670616 C20.0198426,6.61790135 19.3745704,5.48174822 19.1136492,4.97848576 C17.4582839,1.81784501 13.8850697,0 9.99937507,0 C4.53132392,-0.000527760069 0.0768944428,4.28623239 0,9.62298825 C0.0374976565,6.83674427 2.87482033,4.58655106 6.24960942,4.58655106 C6.52302983,4.58655106 8.08230738,4.6124767 9.53065436,5.35440757 C10.8071371,6.00864877 11.4758453,6.79861833 11.94066,7.58172521 C12.4234423,8.39533286 12.5093744,9.42320831 12.5093744,9.83268094 C12.5093744,10.2421536 12.2953253,10.8491186 11.9000375,11.350856 Z" id="Path" fill="url(#radialGradient-3)"></path>
            <path d="M11.9000375,11.350856 C11.8367602,11.4309205 11.6422411,11.5414858 11.6422411,11.7824417 C11.6422411,11.9814591 11.7750453,12.1728514 12.0109681,12.3337429 C13.1343354,13.0962617 15.2521718,12.9956093 15.2576402,12.9956093 C16.0900302,12.9936593 16.9066432,12.7737832 17.6223362,12.358906 C19.0914384,11.5216166 19.996046,9.98722076 19.9995313,8.32670616 C20.0198426,6.61790135 19.3745704,5.48174822 19.1136492,4.97848576 C17.4582839,1.81784501 13.8850697,0 9.99937507,0 C4.53132392,-0.000527760069 0.0768944428,4.28623239 0,9.62298825 C0.0374976565,6.83674427 2.87482033,4.58655106 6.24960942,4.58655106 C6.52302983,4.58655106 8.08230738,4.6124767 9.53065436,5.35440757 C10.8071371,6.00864877 11.4758453,6.79861833 11.94066,7.58172521 C12.4234423,8.39533286 12.5093744,9.42320831 12.5093744,9.83268094 C12.5093744,10.2421536 12.2953253,10.8491186 11.9000375,11.350856 Z" id="Path" fill="#20DD73"></path>
        </g>
    </g>
</svg>