<svg width="20" height="19" xmlns="http://www.w3.org/2000/svg"><path d="M19.833 6.578c-.046.512-.288 1.066-.288 1.066-.028-1.148-.198-2.17-.514-3.069a6.93 6.93 0 00-1.009-1.907c.195.767.295 1.364.298 1.797C17.94 3.123 16.112-.194 9.95.51c.924 0 1.808.153 2.642.423-.135-.007-.266-.018-.405-.021 1.322.372 2.167.976 2.28 1.257-.486-.09-.923-.057-1.31.096 2.77 1.09 4.087 2.39 3.935 3.892a1.442 1.442 0 00-.817-.625c.426 1.647.469 3.007.124 4.083-.234-.717-.45-1.143-.646-1.296.27 2.209-.092 3.843-1.087 4.908.188-.65.263-1.183.22-1.602-1.076 1.708-2.631 2.71-3.984 2.71-1.9 0-3.129-.963-3.75-1.584.15.01.298.018.444.018 2.333 0 3.029-1.37 3.672-1.37a.59.59 0 01.245.056c.234-.032.355-.142.355-.298 0-.352-.753-.96-1.56-.96-.94 0-1.146.64-2.105.64-1.2 0-2.27-1.648-2.27-1.648 0-.433.21-.714.58-.77-.103-.011.891.127 1.427.284.09-.512-.028-1.058-.351-1.609 0-.003.767-.72 1.331-1.023a.557.557 0 00.302-.408c.046-.025.093-.107.093-.188 0-.078-.054-.15-.157-.213-1.633.135-1.754-.796-2.375-1.154.18-1.169 1.008-1.858 1.54-2.216-.99.124-1.885.564-2.68 1.328-.426-.362-2.348-.494-2.823-.256-.302-.383-.519-.984-.643-1.8-.721.703-1.069 1.967-1.048 3.789C1.09 5.005 0 6.379 0 7.359c0 .107.01.249.032.32l.586-.476a6.378 6.378 0 00-.469 2.433c0 4.055 3.558 9.243 9.847 9.243C17.702 18.88 20 12.501 20 7.935c0-.54-.053-1.002-.167-1.357z" fill="#F88600" fill-rule="nonzero"/></svg>