<svg width="21" height="21" xmlns="http://www.w3.org/2000/svg"><path d="M20.376 11.027c0-1.611-.417-3.124-1.147-4.44C22.342-.456 15.893.576 15.534.646c-1.366.267-2.63.696-3.795 1.24a9.227 9.227 0 00-.52-.014c-4.35 0-7.992 3.034-8.925 7.102 2.294-2.572 3.899-3.61 4.86-4.026-.154.137-.304.276-.452.416l-.145.14c-.097.093-.194.187-.29.282l-.166.17c-.085.085-.169.171-.25.257-.06.061-.116.123-.173.184A22.8 22.8 0 004.7 7.508a26.507 26.507 0 00-.347.429l-.17.215-.156.204-.174.23-.12.164a28.402 28.402 0 00-1.222 1.809l-.012.02-.216.354-.008.013c-.188.314-.363.617-.52.902C.93 13.343.53 14.387.512 14.448c-2.604 9.31 5.523 5.38 6.657 4.792a9.16 9.16 0 0012.68-5.147h-4.811c-.712 1.202-2.082 2.017-3.657 2.017-2.307 0-4.177-1.748-4.177-3.904h13.097c.05-.386.075-.78.075-1.18zm-1.71-9.01c.788.532 1.42 1.367.334 4.182a9.187 9.187 0 00-4.472-3.712c.848-.409 2.946-1.274 4.137-.47zM1.907 19.22c-.642-.658-.755-2.262.662-5.185a9.183 9.183 0 003.987 4.872c-.918.505-3.353 1.642-4.649.313zm5.276-9.519c.073-2.096 1.897-3.773 4.137-3.773 2.241 0 4.065 1.677 4.138 3.773H7.184z" fill="#1EBBEE" fill-rule="nonzero"/></svg>