<svg height="19" width="19" xmlns="http://www.w3.org/2000/svg"><path d="m2.97.5a2.272 2.272 0 0 0 -1.563.593 2.025 2.025 0 0 0 -.661 1.464v13.638c.002.554.238 1.083.656 1.471s.983.602 1.569.594a2.265 2.265 0 0 0 1.57-.588c.42-.387.659-.916.663-1.47v-13.644c-.022-1.148-1.018-2.066-2.234-2.058zm8.425 6.32c-.702-.926-2.063-1.145-3.048-.489a1.98 1.98 0 0 0 -.9 1.3c-.1.53.032 1.076.367 1.512l6.268 8.251c.704.918 2.055 1.135 3.04.489.464-.293.786-.747.895-1.263a1.894 1.894 0 0 0 -.315-1.49l-.047-.067-6.252-8.243zm2.86-.874c1.602.013 2.913-1.202 2.93-2.715-.017-1.514-1.328-2.729-2.93-2.716a3 3 0 0 0 -2.065.783 2.674 2.674 0 0 0 -.874 1.933c.009.728.323 1.423.874 1.932a3 3 0 0 0 2.065.783z" fill="#e140be"/></svg>