<svg height="21" width="21" xmlns="http://www.w3.org/2000/svg"><path d="m10.752.5c-5.523 0-10 4.477-10 10s4.477 10 10 10c.676 0 1.336-.067 1.974-.195-.257-.123-.285-1.046-.03-1.573.282-.586 1.171-2.07.292-2.568s-.635-.723-1.172-1.299-.317-.663-.351-.81c-.117-.508.517-1.27.547-1.348.029-.078.029-.371.02-.459-.01-.088-.401-.322-.499-.332-.097-.01-.146.156-.283.166s-.732-.361-.86-.459c-.126-.098-.185-.332-.36-.508-.176-.176-.196-.039-.47-.146-.273-.108-1.152-.43-1.826-.703-.673-.274-.732-.657-.742-.928s-.41-.664-.598-.947c-.187-.284-.222-.674-.29-.586-.069.088.351 1.113.283 1.142-.069.03-.215-.283-.41-.537-.196-.254.205-.117-.42-1.348-.625-1.23.195-1.857.234-2.5.04-.642.527.235.273-.175-.253-.41.02-1.27-.175-1.582-.196-.313-1.309.351-1.309.351.03-.302.977-.82 1.66-1.299.684-.478 1.101-.107 1.65.069.55.176.587.117.401-.059s.078-.263.508-.195.547.586 1.201.537.068.127.156.293-.097.146-.527.44c-.43.292.01.292.771.849.762.557.528-.371.45-.781-.079-.41.556-.088.556-.088.469.312.382.017.724.124.342.108 1.268.892 1.268.892-1.162.634-.43.703-.234.85.195.146-.4.429-.4.429-.244-.244-.284.01-.44.097-.156.088-.01.313-.01.313-.808.127-.625.977-.615 1.182s-.517.517-.654.81.351.928.098.967c-.254.039-.508-.957-1.875-.586-.413.112-1.329.586-.84 1.553.488.967 1.299-.274 1.572-.137s-.078.752-.02.762c.06.01.772.027.811.86.04.832 1.084.76 1.309.78.224.02.976-.615 1.084-.644.107-.03.537-.39 1.474.146.938.537 1.416.46 1.738.684.323.225.098.674.4.82.304.147 1.515-.049 1.817.45.303.497-1.25 2.997-1.738 3.27-.488.274-.713.9-1.201 1.3s-1.172.896-1.817 1.279c-.57.34-.673.947-.927 1.139 4.475-.994 7.822-4.987 7.822-9.762 0-5.523-4.477-10-10-10zm2.344 9.385c-.137.039-.42.293-1.114-.117-.693-.41-1.171-.332-1.23-.4 0 0-.059-.167.244-.196.622-.06 1.406.576 1.582.586s.264-.176.576-.075c.313.1.078.163-.058.202zm-3.272-8.389c-.068-.05.057-.106.13-.205.044-.057.012-.151.066-.205.146-.147.869-.352.727.049-.14.4-.815.44-.923.361zm1.748 1.27c-.244-.01-.819-.07-.713-.176.413-.41-.156-.527-.507-.557-.352-.03-.498-.224-.323-.244.176-.02.88.01.996.107.118.098.752.352.791.538.04.185 0 .341-.244.332zm2.12-.069c-.196.157-1.179-.56-1.368-.722-.82-.704-1.26-.47-1.432-.586-.172-.118-.11-.274.153-.508.264-.235 1.006.078 1.435.127.43.049.928.38.938.775s.469.758.273.914z" fill="#8391ec"/></svg>