<svg height="20" width="20" xmlns="http://www.w3.org/2000/svg"><path d="m1.018 3.157c1.299-2.517 4.922-3.803 7.341-2.7 2.867 1.305 3.471 4.802 1.159 7.138-.78.787-1.76 1.387-2.688 2.013-1.151.776-2.202 1.618-2.767 2.942-.966 2.266-.142 5 1.925 6.328.182.116.369.224.574.348-1.188.15-3.03-.548-4.046-1.518-2.056-1.965-2.485-5.09-.942-7.516.612-.962 1.477-1.763 2.101-2.72.467-.714.948-1.534 1.044-2.352.18-1.525-1.37-2.591-2.962-2.196-.21.052-.412.13-.74.233zm10.344 5.036c1.048-.579 1.964-1.074 2.868-1.589.48-.272.671-.682.722-1.257.052-.6.307-1.183.473-1.774l.3-.024c.185.342.44.665.538 1.03.146.543.428.84.954 1.07 1.68.735 2.487 2.098 2.631 3.902.048.589-.205.915-.755.917-.65.003-1.378.072-1.937-.184-1.846-.848-3.599-1.914-5.794-2.091zm-5.81 4.136c1.064-1.698 3.037-2.249 5.05-1.497 2.683 1.002 3.685 3.206 3.086 6.914.45.11.936.162 1.362.35.414.184.767.506 1.146.768l-.101.278-6.175.225c1.04-.708 1.855-1.538 2.197-2.75.348-1.233.11-2.377-.59-3.424-1.214-1.82-3.399-2.153-5.975-.864zm5.328 3.268c-.008 1.538-1.2 2.702-2.764 2.696-1.551-.006-2.733-1.19-2.729-2.733a2.756 2.756 0 0 1 2.802-2.761c1.501.023 2.698 1.267 2.69 2.798zm-2.716 1.309c.724-.018 1.344-.666 1.326-1.385-.019-.716-.684-1.35-1.393-1.327-.718.022-1.342.681-1.322 1.396.02.729.658 1.333 1.39 1.316zm.613-7.506c1.987-.49 3.886-.143 5.623.84 1.356.768 2.7 1.437 4.28 1.562.545.043 1 .343 1.273 1.104-1.157-.452-2.04.058-2.965.392-1.22.44-1.803.22-2.575-.837-1.393-1.906-3.223-3.013-5.636-3.061z" fill="#f0820b"/></svg>