<svg width="18" height="23" xmlns="http://www.w3.org/2000/svg"><path d="M5.077.465c-.058.01-.118.021-.17.056a.46.46 0 00-.112.635l.97 1.451c-1.499.796-2.617 2.12-2.98 3.707h12.43c-.363-1.588-1.481-2.91-2.98-3.707l.97-1.451a.46.46 0 00-.113-.635.46.46 0 00-.633.127l-1.068 1.579A6.947 6.947 0 009 1.804c-.844 0-1.649.151-2.39.423L5.54.648a.451.451 0 00-.463-.183zM6.525 4.06a.676.676 0 11-.002 1.352.676.676 0 01.002-1.352zm4.95 0c.374 0 .675.303.675.676a.675.675 0 11-1.35 0c0-.373.302-.676.675-.676zM1.35 7.216C.605 7.216 0 7.822 0 8.569v6.313c0 .747.605 1.353 1.35 1.353.158 0 .31-.033.45-.084V7.3a1.317 1.317 0 00-.45-.085zm1.35 0v9.921c0 .745.606 1.353 1.35 1.353h9.9c.744 0 1.35-.608 1.35-1.353V7.216H2.7zm13.95 0c-.158 0-.31.033-.45.084v8.85c.14.05.292.085.45.085.745 0 1.35-.606 1.35-1.353V8.57c0-.747-.605-1.353-1.35-1.353zM4.5 19.392v1.804c0 .995.807 1.804 1.8 1.804s1.8-.809 1.8-1.804v-1.804H4.5zm5.4 0v1.804c0 .995.807 1.804 1.8 1.804s1.8-.809 1.8-1.804v-1.804H9.9z" fill="#FF8787" fill-rule="nonzero"/></svg>