<?xml version="1.0" encoding="UTF-8"?>
<svg width="25px" height="13px" viewBox="0 0 25 13" version="1.1" xmlns="http://www.w3.org/2000/svg" xmlns:xlink="http://www.w3.org/1999/xlink">
    <title>iOS</title>
    <g id="Page-1" stroke="none" stroke-width="1" fill="none" fill-rule="evenodd">
        <path d="M1.46875,2.1640625 L1.46875,0.546875 L0.0625,0.546875 L0.0625,2.1640625 L1.46875,2.1640625 Z M1.46875,12 L1.46875,3.703125 L0.0625,3.703125 L0.0625,12 L1.46875,12 Z M8.8046875,12.1953125 C9.79947917,12.1953125 10.7265625,11.9596354 11.5859375,11.4882812 C12.4453125,11.0169271 13.109375,10.3229167 13.578125,9.40625 C14.046875,8.48958333 14.28125,7.45052083 14.28125,6.2890625 C14.28125,5.14322917 14.0585938,4.11848958 13.6132812,3.21484375 C13.1679688,2.31119792 12.5208333,1.60677083 11.671875,1.1015625 C10.8229167,0.596354167 9.86979167,0.34375 8.8125,0.34375 C7.19791667,0.34375 5.88020833,0.881510417 4.859375,1.95703125 C3.83854167,3.03255208 3.328125,4.52083333 3.328125,6.421875 C3.328125,7.42708333 3.546875,8.38020833 3.984375,9.28125 C4.421875,10.1822917 5.06510417,10.8932292 5.9140625,11.4140625 C6.76302083,11.9348958 7.7265625,12.1953125 8.8046875,12.1953125 Z M8.796875,10.8984375 C7.67708333,10.8984375 6.74609375,10.5013021 6.00390625,9.70703125 C5.26171875,8.91276042 4.890625,7.82552083 4.890625,6.4453125 C4.890625,4.72135417 5.27734375,3.49088542 6.05078125,2.75390625 C6.82421875,2.01692708 7.74739583,1.6484375 8.8203125,1.6484375 C9.57552083,1.6484375 10.2565104,1.83984375 10.8632812,2.22265625 C11.4700521,2.60546875 11.9309896,3.14453125 12.2460938,3.83984375 C12.5611979,4.53515625 12.71875,5.34895833 12.71875,6.28125 C12.71875,7.75520833 12.3502604,8.89322917 11.6132812,9.6953125 C10.8763021,10.4973958 9.9375,10.8984375 8.796875,10.8984375 Z M20.6015625,12.1953125 C21.4192708,12.1953125 22.1549479,12.0455729 22.8085938,11.7460938 C23.4622396,11.4466146 23.9635417,11.0273438 24.3125,10.4882812 C24.6614583,9.94921875 24.8359375,9.375 24.8359375,8.765625 C24.8359375,8.15104167 24.6770833,7.60807292 24.359375,7.13671875 C24.0416667,6.66536458 23.5494792,6.27604167 22.8828125,5.96875 C22.4244792,5.76041667 21.5794271,5.51692708 20.3476562,5.23828125 C19.1158854,4.95963542 18.3541667,4.6875 18.0625,4.421875 C17.765625,4.15625 17.6171875,3.81770833 17.6171875,3.40625 C17.6171875,2.93229167 17.8268229,2.52734375 18.2460938,2.19140625 C18.6653646,1.85546875 19.3333333,1.6875 20.25,1.6875 C21.1302083,1.6875 21.7955729,1.87239583 22.2460938,2.2421875 C22.6966146,2.61197917 22.9609375,3.15885417 23.0390625,3.8828125 L23.0390625,3.8828125 L24.4921875,3.7734375 C24.4661458,3.1015625 24.2786458,2.5 23.9296875,1.96875 C23.5807292,1.4375 23.0820312,1.03515625 22.4335938,0.76171875 C21.7851562,0.48828125 21.0364583,0.3515625 20.1875,0.3515625 C19.4166667,0.3515625 18.7161458,0.481770833 18.0859375,0.7421875 C17.4557292,1.00260417 16.9765625,1.38411458 16.6484375,1.88671875 C16.3203125,2.38932292 16.15625,2.9296875 16.15625,3.5078125 C16.15625,4.03385417 16.2903646,4.50911458 16.5585938,4.93359375 C16.8268229,5.35807292 17.234375,5.71354167 17.78125,6 C18.203125,6.22395833 18.9401042,6.46223958 19.9921875,6.71484375 C21.0442708,6.96744792 21.7239583,7.15364583 22.03125,7.2734375 C22.5104167,7.45572917 22.8541667,7.68098958 23.0625,7.94921875 C23.2708333,8.21744792 23.375,8.53125 23.375,8.890625 C23.375,9.24479167 23.2669271,9.57161458 23.0507812,9.87109375 C22.8346354,10.1705729 22.5052083,10.40625 22.0625,10.578125 C21.6197917,10.75 21.109375,10.8359375 20.53125,10.8359375 C19.8802083,10.8359375 19.2942708,10.7226562 18.7734375,10.4960938 C18.2526042,10.2695312 17.8684896,9.97265625 17.6210938,9.60546875 C17.3736979,9.23828125 17.2161458,8.76822917 17.1484375,8.1953125 L17.1484375,8.1953125 L15.71875,8.3203125 C15.7395833,9.0859375 15.9492188,9.77213542 16.3476562,10.3789062 C16.7460938,10.9856771 17.2955729,11.4401042 17.9960938,11.7421875 C18.6966146,12.0442708 19.5651042,12.1953125 20.6015625,12.1953125 Z" id="iOS" fill="#E26CF5" fill-rule="nonzero"></path>
    </g>
</svg>