<?xml version="1.0" encoding="UTF-8"?>
<svg width="22px" height="15px" viewBox="0 0 22 15" version="1.1" xmlns="http://www.w3.org/2000/svg" xmlns:xlink="http://www.w3.org/1999/xlink">
    <title>others</title>
    <g id="Page-1" stroke="none" stroke-width="1" fill="none" fill-rule="evenodd">
        <g id="others" fill="#26C6DA" fill-rule="nonzero">
            <path d="M3.66666667,1.83333333 L20.1666667,1.83333333 L20.1666667,0 L3.66666667,0 C2.65833333,0 1.83333333,0.825 1.83333333,1.83333333 L1.83333333,11.9166667 L0,11.9166667 L0,14.6666667 L12.8333333,14.6666667 L12.8333333,11.9166667 L3.66666667,11.9166667 L3.66666667,1.83333333 Z M21.0833333,3.66666667 L15.5833333,3.66666667 C15.0791667,3.66666667 14.6666667,4.07916667 14.6666667,4.58333333 L14.6666667,13.75 C14.6666667,14.2541667 15.0791667,14.6666667 15.5833333,14.6666667 L21.0833333,14.6666667 C21.5875,14.6666667 22,14.2541667 22,13.75 L22,4.58333333 C22,4.07916667 21.5875,3.66666667 21.0833333,3.66666667 Z M20.1666667,11.9166667 L16.5,11.9166667 L16.5,5.5 L20.1666667,5.5 L20.1666667,11.9166667 Z" id="Shape"></path>
        </g>
    </g>
</svg>