<?xml version="1.0" encoding="UTF-8"?>
<svg width="199px" height="199px" viewBox="0 0 199 199" version="1.1" xmlns="http://www.w3.org/2000/svg" xmlns:xlink="http://www.w3.org/1999/xlink">
    <title>china</title>
    <g id="Page-1" stroke="none" stroke-width="1" fill="none" fill-rule="evenodd">
        <g id="china">
            <rect id="Rectangle" fill="#F23D53" x="0" y="0" width="199" height="199"></rect>
            <polygon id="path4747" fill="#FFDE00" fill-rule="nonzero" transform="translate(47.153323, 68.890381) rotate(16.264220) translate(-47.153323, -68.890381) " points="71.9316369 86.2956059 53.2653435 81.5081137 40.1840111 95.6583538 38.9689857 76.4262377 21.4689544 68.3578151 39.3843193 61.259206 41.650036 42.1224077 53.9373674 56.9673426 72.8376907 53.2085726 62.5163131 69.481855"></polygon>
            <polygon id="path4749" fill="#FFDE00" fill-rule="nonzero" transform="translate(99.562615, 31.651925) rotate(-33.059584) translate(-99.562615, -31.651925) " points="110.203955 39.1268046 102.187495 37.0707595 96.5695618 43.1477473 96.0477548 34.8882878 88.5321596 31.4232085 96.2261247 28.374627 97.1991635 20.1561028 102.476103 26.5314355 110.59307 24.9171873 106.160433 31.9059407"></polygon>
            <polygon id="path4751" fill="#FFDE00" fill-rule="nonzero" transform="translate(117.970940, 58.020652) rotate(1.390934) translate(-117.970940, -58.020652) " points="128.612279 65.4955309 120.595819 63.439486 114.977887 69.5164734 114.45608 61.2570144 106.940485 57.7919352 114.63445 54.7433539 115.607489 46.5248302 120.884428 52.9001625 129.001395 51.2859144 124.568757 58.2746674"></polygon>
            <polygon id="path4757" fill="#FFDE00" fill-rule="nonzero" transform="translate(99.767470, 113.475548) rotate(40.538533) translate(-99.767470, -113.475548) " points="110.40881 120.950428 102.39235 118.894383 96.774417 124.971371 96.2526099 116.711911 88.7370147 113.246832 96.4309799 110.19825 97.4040186 101.979726 102.680958 108.355059 110.797925 106.74081 106.365288 113.729564"></polygon>
            <polygon id="path4759" fill="#FFDE00" fill-rule="nonzero" transform="translate(118.041857, 89.497490) rotate(16.663261) translate(-118.041857, -89.497490) " points="128.683197 96.9723695 120.666737 94.9163244 115.048804 100.993312 114.526997 92.7338527 107.011402 89.2687734 114.705367 86.2201919 115.678406 78.0016678 120.955346 84.3770004 129.072313 82.7627523 124.639675 89.7515056"></polygon>
        </g>
    </g>
</svg>