<?xml version="1.0" encoding="UTF-8"?>
<svg width="199px" height="199px" viewBox="0 0 199 199" version="1.1" xmlns="http://www.w3.org/2000/svg" xmlns:xlink="http://www.w3.org/1999/xlink">
    <title>england</title>
    <g id="Page-1" stroke="none" stroke-width="1" fill="none" fill-rule="evenodd">
        <g id="england">
            <rect id="Rectangle" fill="#1B50C5" x="0" y="0" width="199" height="199"></rect>
            <polygon id="path4589" fill="#EC3047" fill-rule="nonzero" points="0 35 0 52.425664 84.4980247 101.500261 0 150.574858 0 168 99.5000003 110.212568 199 168 199 150.574858 114.501976 101.500261 199 52.425664 199 35 99.5000003 92.7874291"></polygon>
            <polygon id="path4587" fill="#EC3047" fill-rule="nonzero" points="82.3876418 0 82.387642 82.3876395 0 82.3876395 0 116.61184 82.387642 116.61184 82.387642 199 100.103114 199 116.612359 199 116.612359 116.61184 199 116.61184 199 82.3876395 116.612359 82.3876395 116.612359 0 100.103114 0"></polygon>
            <path d="M79.3228195,0 L79.3228195,75.4453617 L0,29.6477249 L0,37.3583035 L72.6847618,79.3228193 L55.9365154,79.3228193 L0,47.0276972 L0,54.7387966 L42.58111,79.3228193 L0,79.3228193 L0,86 L54.1467185,86 L67.5016004,86 L74.4453474,86 C78.9908167,86 81.7751208,85.810344 86,85.810344 L86,79.3003893 L86,0 L79.3228195,0 Z M113,0 L113,79.2741666 L113,86 C117.074787,86 120.874474,85.9715619 124.554653,85.9715619 L131.4984,85.9715619 L144.853282,85.9715619 L199,85.9715619 L199,79.2965892 L156.418888,79.2965892 L199,54.7206959 L199,47.0121463 L143.063485,79.2965892 L126.315238,79.2965892 L199,37.34595 L199,29.6379211 L119.677181,75.4204138 L119.677181,0 L113,0 Z M86,113.080604 C82.1507416,113.080604 78.1247276,113 74.4443031,113 L67.5010796,113 L54.1456742,113 L0,113 L0,119.67714 L42.5805892,119.67714 L0,144.261013 L0,151.972066 L55.9359946,119.67714 L72.6847618,119.67714 L0,161.641401 L0,169.351933 L79.3228195,123.554577 L79.3228195,199 L86,199 L86,119.69957 L86,113.080604 Z M113,113.080604 L113,119.69957 L113,199 L119.677181,199 L119.677181,123.554577 L199,169.351933 L199,161.641401 L126.315238,119.67714 L143.064006,119.67714 L199,151.972066 L199,144.261013 L156.419411,119.67714 L199,119.67714 L199,113 L144.854326,113 L131.49892,113 L124.555697,113 C120.333596,113 113,113.080604 113,113.080604 Z" id="rect4572" fill="#FFFFFF" fill-rule="nonzero"></path>
        </g>
    </g>
</svg>