<svg width="9" height="9" viewBox="0 0 9 9" fill="none" xmlns="http://www.w3.org/2000/svg">
<path d="M4.5 5.3369L1.46624 8.37066C1.34668 8.49022 1.2072 8.55 1.04779 8.55C0.888376 8.55 0.748893 8.49022 0.629336 8.37066C0.509779 8.25111 0.45 8.11162 0.45 7.95221C0.45 7.7928 0.509779 7.65332 0.629336 7.53376L3.6631 4.5L0.629336 1.46623C0.509779 1.34668 0.45 1.20719 0.45 1.04778C0.45 0.888373 0.509779 0.74889 0.629336 0.629333C0.748893 0.509776 0.888376 0.449997 1.04779 0.449997C1.2072 0.449997 1.34668 0.509776 1.46624 0.629333L4.5 3.6631L7.53376 0.629333C7.65332 0.509776 7.7928 0.449997 7.95221 0.449997C8.11162 0.449997 8.25111 0.509776 8.37067 0.629333C8.49022 0.74889 8.55 0.888373 8.55 1.04778C8.55 1.20719 8.49022 1.34668 8.37067 1.46623L5.3369 4.5L8.37067 7.53376C8.49022 7.65332 8.55 7.7928 8.55 7.95221C8.55 8.11162 8.49022 8.25111 8.37067 8.37066C8.25111 8.49022 8.11162 8.55 7.95221 8.55C7.7928 8.55 7.65332 8.49022 7.53376 8.37066L4.5 5.3369Z" fill="#35496D"/>
</svg>
