<?xml version="1.0" encoding="UTF-8"?>
<svg width="18px" height="18px" viewBox="0 0 18 18" version="1.1" xmlns="http://www.w3.org/2000/svg" xmlns:xlink="http://www.w3.org/1999/xlink">
    <title>dribble</title>
    <g id="Page-1" stroke="none" stroke-width="1" fill="none" fill-rule="evenodd">
        <g id="dribble" transform="translate(0.000000, 0.000000)" fill="#4B648F" fill-rule="nonzero">
            <path d="M13.2950159,15.374677 C13.2170159,14.911677 12.8070159,12.654677 11.7990159,9.885677 C14.2800159,9.488677 16.4300159,10.169677 16.5890159,10.221677 C16.4217159,11.260277 16.0431159,12.253477 15.4765159,13.139777 C14.9099159,14.026177 14.1674159,14.786777 13.2950159,15.374677 Z M9.00005594,16.6876851 C7.21203594,16.690277 5.47951594,16.066877 4.10305594,14.925677 C4.20505594,15.007677 4.27605594,15.059677 4.27605594,15.059677 C4.27605594,15.059677 5.74905594,11.846677 10.3080159,10.258677 C10.3240159,10.251677 10.3420159,10.248677 10.3590159,10.242677 C11.4410159,13.052677 11.8870159,15.405677 12.0010159,16.077677 C11.0522159,16.480677 10.0319159,16.688177 9.00105594,16.6876851 L9.00005594,16.6876851 Z M1.31405594,9.000677 C1.31405594,8.918677 1.31805594,8.838677 1.32005594,8.757677 C1.45605594,8.760677 5.25405594,8.847677 9.21105594,7.662677 C9.43101594,8.092677 9.64101594,8.532677 9.83501594,8.969677 C9.73311594,8.997127 9.63201594,9.027807 9.53201594,9.061677 C5.38405594,10.401677 3.28005594,14.132677 3.28005594,14.132677 L3.28305594,14.136677 C2.01278594,12.727877 1.31076594,10.897577 1.31305035,9.000677 L1.31405594,9.000677 Z M5.72005594,2.050677 C6.75582594,3.470717 7.70906594,4.949157 8.57505594,6.478677 C4.88505594,7.458677 1.68105594,7.420677 1.47905594,7.416677 C1.72391594,6.255627 2.23420594,5.167017 2.96996594,4.236077 C3.70572594,3.305147 4.64699594,2.557157 5.72005594,2.050677 Z M14.0760159,3.233677 C14.0570159,3.262677 12.9630159,4.928677 10.0610159,6.015677 C9.20721594,4.457417 8.24798594,2.959267 7.19005594,1.531677 C8.39029594,1.238347 9.64371594,1.239947 10.8432159,1.536337 C12.0426159,1.832727 13.1526159,2.415087 14.0780159,3.233677 L14.0760159,3.233677 Z M16.6840159,8.923677 C16.5740159,8.899677 13.9720159,8.339677 11.3310159,8.671677 L11.1650159,8.276677 C11.0046159,7.900217 10.8342159,7.528087 10.6540159,7.160677 C13.6890159,5.920677 14.9210159,4.140677 14.9360159,4.119677 C16.0519159,5.473437 16.6690159,7.169367 16.6840159,8.923677 Z M17.8180159,7.189677 C17.6986159,6.609797 17.5224159,6.043067 17.2920159,5.497677 C16.6125159,3.889957 15.4797159,2.514727 14.0320159,1.539677 C13.5508159,1.213837 13.0391159,0.935537 12.5040159,0.708677 C11.3950159,0.240957 10.2036159,0 9.00005594,0 C7.79646594,0 6.60505594,0.240957 5.49605594,0.708677 C3.88921594,1.389697 2.51435594,2.522107 1.53805594,3.968677 C0.532995937,5.454117 -0.00281106313,7.207167 2.72151503e-05,9.000677 C-0.00294706313,10.204177 0.237896937,11.395777 0.708055937,12.503677 C0.934055937,13.039677 1.21205594,13.552677 1.53805594,14.033677 C2.51424594,15.480077 3.88916594,16.612177 5.49605594,17.292677 C6.04076594,17.523477 6.60727594,17.699077 7.18705594,17.816677 C8.97113594,18.186077 10.8254159,18.003377 12.5030159,17.292677 C13.0384159,17.066177 13.5505159,16.788277 14.0320159,16.462677 C14.5100159,16.139677 14.9560159,15.772677 15.3640159,15.365677 C16.4187159,14.313077 17.1950159,13.014677 17.6232159,11.587477 C18.0514159,10.160277 18.1180159,8.649017 17.8170159,7.189677 L17.8180159,7.189677 Z" id="Shape"></path>
        </g>
    </g>
</svg>