<?xml version="1.0" encoding="UTF-8"?>
<svg width="18px" height="18px" viewBox="0 0 18 18" version="1.1" xmlns="http://www.w3.org/2000/svg" xmlns:xlink="http://www.w3.org/1999/xlink">
    <title>github</title>
    <g id="Page-1" stroke="none" stroke-width="1" fill="none" fill-rule="evenodd">
        <g id="github" fill="#4B648F">
            <path d="M10.4109258,12.4514297 C12.1646953,12.2443242 14.0299805,11.6066602 14.0299805,8.57749219 C14.0299805,7.71651563 13.726793,7.01486719 13.2329883,6.47272266 C13.3126523,6.26565234 13.5675,5.48433984 13.1368711,4.40036719 C13.1368711,4.40036719 12.4991719,4.19301563 11.0008125,5.19732422 C10.3631133,5.02214063 9.66171094,4.91034375 9.00808594,4.91034375 C8.33825391,4.91034375 7.63660547,5.02214063 7.01483203,5.19732422 C5.50023047,4.19301563 4.86256641,4.40036719 4.86256641,4.40036719 C4.43221875,5.48433984 4.68738281,6.26565234 4.76701172,6.47272266 C4.27267969,7.01483203 3.96977344,7.71651563 3.96977344,8.57749219 C3.96977344,11.6066602 5.83505859,12.2443242 7.58882812,12.4514297 C7.36579687,12.6431016 7.15848047,13.0094648 7.07881641,13.5197227 C6.63226172,13.7109023 5.46837891,14.0777578 4.76701172,12.8660977 C4.76701172,12.8660977 4.35234375,12.116918 3.57127734,12.0691406 C3.57127734,12.0691406 2.78996484,12.0532148 3.50753906,12.5469844 C3.50753906,12.5469844 4.03347656,12.7864688 4.38444141,13.6949414 C4.38444141,13.6949414 4.86256641,15.2097891 7.06260937,14.7313477 L7.06260937,16.086375 C7.06260937,16.2940078 6.90335156,16.5329297 6.50485547,16.4692266 C3.37988672,15.4327852 1.13203125,12.4673203 1.13203125,8.99191406 C1.13203125,4.63932422 4.65525,1.11614063 9.00808594,1.11614063 C13.3445039,1.11614063 16.8838945,4.63935938 16.8680223,8.99191406 C16.8680223,12.4673203 14.6198672,15.4168594 11.4951094,16.4692266 C11.0963672,16.5488906 10.9370742,16.3099688 10.9370742,16.086375 L10.9370742,13.9025391 C10.9371094,13.1687227 10.697625,12.6908789 10.4109258,12.4514297 L10.4109258,12.4514297 Z M18,9.00808594 C18,4.03347656 13.9662773,0 9.00808594,0 C4.03347656,0 0,4.03347656 0,9.00808594 C0,13.9662773 4.03347656,18 9.00808594,18 C13.9662773,18 18,13.9662773 18,9.00808594 L18,9.00808594 Z" id="Shape"></path>
        </g>
    </g>
</svg>