<?xml version="1.0" encoding="UTF-8"?>
<svg width="21px" height="18px" viewBox="0 0 21 18" version="1.1" xmlns="http://www.w3.org/2000/svg" xmlns:xlink="http://www.w3.org/1999/xlink">
    <title>twitter</title>
    <g id="Page-1" stroke="none" stroke-width="1" fill="none" fill-rule="evenodd">
        <g id="twitter" transform="translate(1.000000, 1.000000)" fill="#4B648F" fill-rule="nonzero" stroke="#4B648F" stroke-width="0.55">
            <path d="M18.8419956,1.86944382 C18.7147327,1.78181536 18.5462353,1.78627538 18.4233584,1.88070355 C18.262015,2.00510892 17.9994366,2.10381432 17.7167981,2.17985404 C18.4528374,1.34126023 18.4686553,0.781308121 18.4607464,0.652406173 C18.4524779,0.519446336 18.3736756,0.40143854 18.2550048,0.344664653 C18.1360105,0.287561748 17.9966325,0.301490177 17.8905802,0.379650236 C17.0627607,0.991587192 16.2381049,1.12081816 15.7476397,1.13383265 C14.9949557,0.40143854 14.017189,0 12.9769772,0 C10.7495904,0 8.93749728,1.86732348 8.93749728,4.16251662 C8.93749728,4.35974465 8.95101447,4.55700923 8.97804883,4.75211691 C5.11781531,4.70766292 1.9830877,0.946402051 1.95080464,0.907139234 C1.8754895,0.815562552 1.76088107,0.76664854 1.64379209,0.777177117 C1.52670311,0.787559463 1.42190901,0.855190945 1.36327464,0.958721948 C0.252313399,2.91853605 0.995686424,4.63984865 1.67521234,5.62536729 C1.55495976,5.56018516 1.45753541,5.49595354 1.39944029,5.45237693 C1.2914826,5.37063423 1.14735925,5.35707137 1.02606413,5.41757413 C0.904948755,5.47825968 0.827548517,5.60251882 0.825247721,5.73975589 C0.795229514,7.60711593 1.67923874,8.67686318 2.51022178,9.26825479 C2.39945999,9.25754342 2.28693666,9.29947494 2.21007567,9.38447126 C2.12368794,9.4799596 2.09334619,9.61474732 2.13055438,9.73878711 C2.7045672,11.6496872 4.11427251,12.2988763 5.01129561,12.5191722 C3.16691948,13.9791348 0.452950059,13.5093336 0.422931853,13.5039596 C0.25914389,13.4745308 0.097117474,13.5621593 0.0304303205,13.7167612 C-0.036292783,13.8711437 0.00936365096,14.0521402 0.14137186,14.1544283 C2.08806154,15.665279 4.41639588,16 6.09838609,16 C7.37051095,15.9998172 8.27328605,15.8082556 8.35963782,15.7891726 C16.8789846,13.7362098 17.1187707,5.80062422 17.0992859,4.50005255 C18.6985912,2.98759328 18.9485512,2.41155584 18.9871614,2.2691276 C19.0278927,2.11792554 18.9696179,1.95729163 18.8419956,1.86944382 Z M16.491552,4.07576554 C16.4115274,4.15074509 16.3692143,4.25873611 16.3764043,4.36921305 C16.3990528,4.72034839 16.8347302,12.9955902 8.20059525,15.0762271 C8.16148171,15.0846353 4.72937612,15.8128984 1.75401463,14.314002 C3.01104051,14.2785046 4.8136428,13.9436374 6.06941043,12.5098865 C6.16421045,12.4018955 6.18721841,12.2471108 6.12822455,12.1153939 C6.06994968,11.98492 5.94178812,11.9011666 5.80100812,11.9011666 C5.79978582,11.9011666 5.79856353,11.9011666 5.79734123,11.9011666 C5.77943815,11.9127919 3.89152663,11.8990463 3.02736178,10.072777 C3.37546513,10.0927739 3.80463561,10.0709856 4.14641177,9.91086354 C4.28719176,9.84480403 4.37037994,9.69451591 4.35301612,9.53779366 C4.33565229,9.3812542 4.22154716,9.25363176 4.06987433,9.2211321 C3.97316897,9.20044052 1.87164286,8.72256013 1.57760823,6.39113845 C1.89655617,6.5328721 2.30433643,6.64890579 2.70805435,6.58624613 C2.84674925,6.56500619 2.96031513,6.46359553 2.99946463,6.32668747 C3.03861412,6.18977942 2.99576178,6.04197722 2.88992513,5.94842643 C2.80005026,5.86884062 0.826290269,4.08505116 1.76210337,1.78466685 C2.77794105,2.86852531 5.78716739,5.68550447 9.43270782,5.4725567 C9.53962296,5.46630536 9.63826962,5.41168837 9.70179318,5.32384055 C9.76517294,5.2360293 9.78677886,5.12412662 9.76060729,5.01843872 C9.69161934,4.73888308 9.65649624,4.45080952 9.65649624,4.16251662 C9.65649624,2.27037056 11.1461183,0.731151152 12.9769772,0.731151152 C13.8725623,0.731151152 14.7126767,1.09456983 15.3421603,1.75468965 C15.4083441,1.82411245 15.4990818,1.86410642 15.5940616,1.86571495 C15.9749513,1.87105235 16.601451,1.8255382 17.3088741,1.53706251 C17.1047143,1.79537821 16.8048918,2.10524007 16.3637859,2.45743558 C16.2391474,2.55705492 16.1933472,2.72807118 16.2510828,2.87817651 C16.3089982,3.02864742 16.4584062,3.12362395 16.6146087,3.10932995 C16.6983361,3.1025668 17.1256012,3.06418136 17.6083371,2.95798166 C17.3453633,3.24642079 16.9848212,3.61433605 16.491552,4.07576554 Z" id="Shape"></path>
        </g>
    </g>
</svg>