<svg height="200" width="200" xmlns="http://www.w3.org/2000/svg"><g fill="none" fill-rule="evenodd"><path d="M0 0h200v200H0z" fill="#e5eef7"/><path d="M121.658 144.927c-.655-7.122-.397-12.089-.397-18.59 3.225-1.69 9.002-12.468 9.968-21.573 2.535-.207 6.536-2.673 7.708-12.434.621-5.242-1.88-8.19-3.414-9.122 4.121-12.399 12.692-50.768-15.83-54.735-2.95-5.156-10.468-7.76-20.229-7.76-39.093.725-43.801 29.523-35.23 62.495-1.535.931-4.036 3.88-3.415 9.122 1.19 9.76 5.173 12.227 7.708 12.434.966 9.105 6.967 19.883 10.21 21.573 0 6.501.24 11.468-.415 18.59-7.725 20.797-59.908 14.95-62.322 55.062h167.756c-2.414-40.111-54.372-34.265-62.098-55.062z" fill="#9fb7d0" fill-rule="nonzero"/></g></svg>