<?xml version="1.0" encoding="UTF-8"?>
<svg width="153px" height="153px" viewBox="0 0 153 153" version="1.1" xmlns="http://www.w3.org/2000/svg" xmlns:xlink="http://www.w3.org/1999/xlink">
    <!-- Generator: Sketch 64 (93537) - https://sketch.com -->
    <title>icons8-road_closure</title>
    <desc>Created with Sketch.</desc>
    <g id="Page-1" stroke="none" stroke-width="1" fill="none" fill-rule="evenodd">
        <g id="icons8-road_closure" fill-rule="nonzero">
            <path d="M133.384615,1.96153846 C132.301288,1.96153846 131.423077,2.83974914 131.423077,3.92307692 C131.423077,5.0064047 132.301288,5.88461538 133.384615,5.88461538 C134.467943,5.88461538 135.346154,5.0064047 135.346154,3.92307692 C135.346154,2.83974914 134.467943,1.96153846 133.384615,1.96153846 Z" id="Path" fill="#F1BC19"></path>
            <path d="M76.5,3.92307692 C36.4168722,3.92307692 3.92307692,36.4168722 3.92307692,76.5 C3.92307692,116.583128 36.4168722,149.076923 76.5,149.076923 C116.583128,149.076923 149.076923,116.583128 149.076923,76.5 C149.076923,36.4168722 116.583128,3.92307692 76.5,3.92307692 Z" id="Path" fill="#C0E5E4"></path>
            <path d="M145.153846,0 C140.820535,0 137.307692,3.51284273 137.307692,7.84615385 C137.307692,12.179465 140.820535,15.6923077 145.153846,15.6923077 C149.487157,15.6923077 153,12.179465 153,7.84615385 C153,3.51284273 149.487157,0 145.153846,0 Z" id="Path" fill="#F1BC19"></path>
            <path d="M3.92307692,31.3846154 C1.75642137,31.3846154 0,33.1410368 0,35.3076923 C0,37.4743479 1.75642137,39.2307692 3.92307692,39.2307692 C6.08973248,39.2307692 7.84615385,37.4743479 7.84615385,35.3076923 C7.84615385,33.1410368 6.08973248,31.3846154 3.92307692,31.3846154 Z" id="Path" fill="#00A5A5"></path>
            <path d="M135.346154,127.5 C133.179498,127.5 131.423077,129.256421 131.423077,131.423077 C131.423077,133.589732 133.179498,135.346154 135.346154,135.346154 C137.512809,135.346154 139.269231,133.589732 139.269231,131.423077 C139.269231,129.256421 137.512809,127.5 135.346154,127.5 Z M29.4230769,119.653846 C25.0897658,119.653846 21.5769231,123.166689 21.5769231,127.5 C21.5769231,131.833311 25.0897658,135.346154 29.4230769,135.346154 C33.756388,135.346154 37.2692308,131.833311 37.2692308,127.5 C37.2692308,123.166689 33.756388,119.653846 29.4230769,119.653846 Z" id="Shape" fill="#FBCD59"></path>
            <path d="M31.3846154,145.153846 C29.2179598,145.153846 27.4615385,146.910268 27.4615385,149.076923 C27.4615385,151.243579 29.2179598,153 31.3846154,153 C33.5512709,153 35.3076923,151.243579 35.3076923,149.076923 C35.3076923,146.910268 33.5512709,145.153846 31.3846154,145.153846 Z" id="Path" fill="#00A5A5"></path>
            <path d="M93.1730769,131.423077 C90.4647575,131.423077 88.2692308,133.618604 88.2692308,136.326923 C88.2692308,139.035243 90.4647575,141.230769 93.1730769,141.230769 C94.9250524,141.230769 96.5439445,140.296101 97.4199323,138.778846 C98.29592,137.261591 98.29592,135.392255 97.4199323,133.875 C96.5439445,132.357745 94.9250524,131.423077 93.1730769,131.423077 Z M23.5953462,111.807692 C22.5434349,111.807692 21.6906923,112.660435 21.6906923,113.712346 C21.6906923,114.764257 22.5434349,115.617 23.5953462,115.617 C24.6472574,115.617 25.5,114.764257 25.5,113.712346 C25.5,112.660435 24.6472574,111.807692 23.5953462,111.807692 Z" id="Shape" fill="#FFFFFF"></path>
            <path d="M145.153846,37.2692308 C144.070518,37.2692308 143.192308,38.1474415 143.192308,39.2307692 C143.192308,40.314097 144.070518,41.1923077 145.153846,41.1923077 C146.237174,41.1923077 147.115385,40.314097 147.115385,39.2307692 C147.115385,38.1474415 146.237174,37.2692308 145.153846,37.2692308 Z" id="Path" fill="#F1BC19"></path>
            <path d="M131.423077,107.884615 C129.256421,107.884615 127.5,109.641037 127.5,111.807692 C127.5,113.974348 129.256421,115.730769 131.423077,115.730769 C133.589732,115.730769 135.346154,113.974348 135.346154,111.807692 C135.346154,109.641037 133.589732,107.884615 131.423077,107.884615 Z M133.384615,43.1538462 C132.301288,43.1538462 131.423077,44.0320568 131.423077,45.1153846 C131.423077,46.1987124 132.301288,47.0769231 133.384615,47.0769231 C134.467943,47.0769231 135.346154,46.1987124 135.346154,45.1153846 C135.346154,44.0320568 134.467943,43.1538462 133.384615,43.1538462 Z" id="Shape" fill="#FFFFFF"></path>
            <path d="M44.1346154,101.019231 L51.9807692,101.019231 L51.9807692,124.557692 L44.1346154,124.557692 L44.1346154,101.019231 Z M101.019231,101.019231 L108.865385,101.019231 L108.865385,124.557692 L101.019231,124.557692 L101.019231,101.019231 Z" id="Shape" fill="#FDFCEF"></path>
            <polygon id="Path" fill="#FDFCEF" transform="translate(76.500000, 111.807692) rotate(-90.000000) translate(-76.500000, -111.807692) " points="73.5576923 87.2884615 79.4423077 87.2884615 79.4423077 136.326923 73.5576923 136.326923"></polygon>
            <path d="M102,115.730769 L51,115.730769 L51,107.884615 L102,107.884615 L102,115.730769 Z M52.9615385,113.769231 L100.038462,113.769231 L100.038462,109.846154 L52.9615385,109.846154 L52.9615385,113.769231 Z" id="Shape" fill="#472B29"></path>
            <path d="M76.5,24.5192308 C65.1250583,24.5192308 55.9038462,33.7404429 55.9038462,45.1153846 C55.9038462,56.4903263 65.1250583,65.7115385 76.5,65.7115385 C87.8749417,65.7115385 97.0961538,56.4903263 97.0961538,45.1153846 C97.0961538,33.7404429 87.8749417,24.5192308 76.5,24.5192308 Z" id="Path" fill="#EE3E54"></path>
            <polygon id="Path" fill="#FFFFFF" transform="translate(76.500000, 45.115385) rotate(-180.000000) translate(-76.500000, -45.115385) " points="65.7115385 42.1730769 87.2884615 42.1730769 87.2884615 48.0576923 65.7115385 48.0576923"></polygon>
            <polygon id="Path" fill="#FDFCEF" points="31.3846154 65.6723077 121.615385 65.6723077 121.615385 100.836808 31.3846154 100.836808"></polygon>
            <path d="M51.9807692,125.538462 L44.1346154,125.538462 C43.5932308,125.538462 43.1538462,125.099077 43.1538462,124.557692 L43.1538462,100.038462 L52.9615385,100.038462 L52.9615385,124.557692 C52.9615385,125.099077 52.5221538,125.538462 51.9807692,125.538462 Z M45.1153846,123.576923 L51,123.576923 L51,102 L45.1153846,102 L45.1153846,123.576923 Z M108.865385,125.538462 L101.019231,125.538462 C100.477846,125.538462 100.038462,125.099077 100.038462,124.557692 L100.038462,100.038462 L109.846154,100.038462 L109.846154,124.557692 C109.846154,125.099077 109.406769,125.538462 108.865385,125.538462 Z M102,123.576923 L107.884615,123.576923 L107.884615,102 L102,102 L102,123.576923 Z" id="Shape" fill="#472B29"></path>
            <polygon id="Path" fill="#FBCD59" points="74.5384615 101.019231 93.1730769 65.7115385 77.4807692 65.7115385 58.8461538 101.019231"></polygon>
            <path d="M59.3365385,102 C59.1815769,102 59.0246538,101.962731 58.8795,101.886231 C58.4008846,101.633192 58.2165,101.038846 58.4695385,100.560231 L77.1041538,65.2525385 C77.3571923,64.7719615 77.9554615,64.5934615 78.4301538,64.8425769 C78.9087692,65.0956154 79.0931538,65.6899615 78.8401154,66.1685769 L60.2055,101.476269 C60.0289615,101.809731 59.6876538,102 59.3365385,102 Z M75.0288462,102 C74.8738846,102 74.7169615,101.962731 74.5718077,101.886231 C74.0931923,101.633192 73.9088077,101.038846 74.1618462,100.560231 L92.7964615,65.2525385 C93.0514615,64.7719615 93.6477692,64.5934615 94.1224615,64.8425769 C94.6010769,65.0956154 94.7854615,65.6899615 94.5324231,66.1685769 L75.8978077,101.476269 C75.7212692,101.809731 75.3799615,102 75.0288462,102 Z" id="Shape" fill="#472B29"></path>
            <polygon id="Path" fill="#FBCD59" points="42.6634615 101.019231 61.2980769 65.7115385 45.6057692 65.7115385 30.4038462 94.5147692 30.4038462 101.019231"></polygon>
            <path d="M31.0864615,95.1346154 C30.9315,95.1346154 30.7745769,95.0973462 30.6294231,95.0208462 C30.1508077,94.7678077 29.9664231,94.1734615 30.2194615,93.6948462 L45.2291538,65.2525385 C45.4841538,64.7719615 46.0804615,64.5934615 46.5551538,64.8425769 C47.0337692,65.0956154 47.2181538,65.6899615 46.9651154,66.1685769 L31.9554231,94.6108846 C31.7769231,94.9443462 31.4356154,95.1346154 31.0864615,95.1346154 Z M33.3461538,100.734808 C33.2676923,100.734808 33.1911923,100.717154 33.1186154,100.677923 C32.8773462,100.552385 32.7871154,100.254231 32.9146154,100.014923 L45.9627692,75.2897308 C46.0863462,75.0484615 46.3884231,74.9621538 46.6238077,75.0857308 C46.8650769,75.2112692 46.9553077,75.5094231 46.8278077,75.7487308 L33.7796538,100.473923 C33.6933462,100.640654 33.5226923,100.734808 33.3461538,100.734808 Z M38.25,101.509615 C38.1715385,101.509615 38.0950385,101.491962 38.0224615,101.452731 C37.7811923,101.327192 37.6909615,101.029038 37.8184615,100.789731 L52.8281538,72.3474231 C52.9536923,72.1081154 53.2557692,72.0198462 53.4891923,72.1434231 C53.7304615,72.2689615 53.8206923,72.5671154 53.6931923,72.8064231 L38.6835,101.248731 C38.5971923,101.415462 38.4265385,101.509615 38.25,101.509615 Z M43.1538462,102 C42.9988846,102 42.8419615,101.962731 42.6968077,101.886231 C42.2181923,101.633192 42.0338077,101.038846 42.2868462,100.560231 L60.9214615,65.2525385 C61.1745,64.7719615 61.7727692,64.5934615 62.2474615,64.8425769 C62.7260769,65.0956154 62.9104615,65.6899615 62.6574231,66.1685769 L44.0228077,101.476269 C43.8462692,101.809731 43.5049615,102 43.1538462,102 Z" id="Shape" fill="#472B29"></path>
            <polygon id="Path" fill="#FBCD59" points="106.413462 101.019231 122.460808 70.6153846 122.596154 65.7115385 109.355769 65.7115385 90.7211538 101.019231"></polygon>
            <path d="M91.2115385,102 C91.0565769,102 90.8996538,101.962731 90.7545,101.886231 C90.2758846,101.633192 90.0915,101.038846 90.3445385,100.560231 L108.979154,65.2525385 C109.234154,64.7719615 109.830462,64.5934615 110.305154,64.8425769 C110.783769,65.0956154 110.968154,65.6899615 110.715115,66.1685769 L92.0805,101.476269 C91.9039615,101.809731 91.5626538,102 91.2115385,102 Z M106.903846,102 C106.748885,102 106.591962,101.962731 106.446808,101.886231 C105.968192,101.633192 105.783808,101.038846 106.036846,100.560231 L121.046538,72.1179231 C121.301538,71.6353846 121.897846,71.4588462 122.372538,71.7079615 C122.851154,71.961 123.035538,72.5553462 122.7825,73.0339615 L107.772808,101.476269 C107.596269,101.809731 107.254962,102 106.903846,102 Z M87.2884615,49.0384615 L65.7115385,49.0384615 C65.1701538,49.0384615 64.7307692,48.5990769 64.7307692,48.0576923 L64.7307692,42.1730769 C64.7307692,41.6316923 65.1701538,41.1923077 65.7115385,41.1923077 L87.2884615,41.1923077 C87.8298462,41.1923077 88.2692308,41.6316923 88.2692308,42.1730769 L88.2692308,48.0576923 C88.2692308,48.5990769 87.8298462,49.0384615 87.2884615,49.0384615 Z M66.6923077,47.0769231 L86.3076923,47.0769231 L86.3076923,43.1538462 L66.6923077,43.1538462 L66.6923077,47.0769231 Z" id="Shape" fill="#472B29"></path>
            <path d="M76.5,26.2846154 C86.8824231,26.2846154 95.3307692,34.7329615 95.3307692,45.1153846 C95.3307692,55.4978077 86.8824231,63.9461538 76.5,63.9461538 C66.1175769,63.9461538 57.6692308,55.4978077 57.6692308,45.1153846 C57.6692308,34.7329615 66.1175769,26.2846154 76.5,26.2846154 M76.5,23.5384615 C64.5836538,23.5384615 54.9230769,33.1990385 54.9230769,45.1153846 C54.9230769,57.0317308 64.5836538,66.6923077 76.5,66.6923077 C88.4163462,66.6923077 98.0769231,57.0317308 98.0769231,45.1153846 C98.0769231,33.1990385 88.4163462,23.5384615 76.5,23.5384615 L76.5,23.5384615 Z" id="Shape" fill="#472B29"></path>
            <path d="M120.830769,67.4769231 L120.830769,99.2538462 L32.1692308,99.2538462 L32.1692308,67.4769231 L120.830769,67.4769231 M29.4230769,66.6923077 L29.4230769,100.038462 C29.4230769,101.121231 30.3018462,102 31.3846154,102 L121.615385,102 C122.698154,102 123.576923,101.121231 123.576923,100.038462 L123.576923,66.6923077 C123.576923,65.6095385 122.698154,64.7307692 121.615385,64.7307692 L31.3846154,64.7307692 C30.3018462,64.7307692 29.4230769,65.6095385 29.4230769,66.6923077 Z" id="Shape" fill="#472B29"></path>
            <path d="M75.2210769,91.7019231 C75.1426154,91.7019231 75.0661154,91.6842692 74.9935385,91.6450385 C74.7522692,91.5195 74.6620385,91.2213462 74.7895385,90.9820385 L87.8376923,66.2568462 C87.9632308,66.0155769 88.2653077,65.9273077 88.4987308,66.0528462 C88.74,66.1783846 88.8302308,66.4765385 88.7027308,66.7158462 L75.6545769,91.4410385 C75.5663077,91.6077692 75.3976154,91.7019231 75.2210769,91.7019231 Z M68.3556923,94.6442308 C68.2772308,94.6442308 68.2007308,94.6265769 68.1281538,94.5873462 C67.8868846,94.4618077 67.7966538,94.1636538 67.9241538,93.9243462 L82.9338462,65.4820385 C83.0593846,65.2407692 83.3595,65.1544615 83.5948846,65.2780385 C83.8361538,65.4035769 83.9263846,65.7017308 83.7988846,65.9410385 L68.7891923,94.3833462 C68.7009231,94.5500769 68.5322308,94.6442308 68.3556923,94.6442308 Z" id="Shape" fill="#472B29"></path>
        </g>
    </g>
</svg>