<svg height="260" width="304" xmlns="http://www.w3.org/2000/svg"><mask id="prefix__a" fill="#fff"><path d="M.372.443h34.404v45.352H.372z" fill-rule="evenodd"/></mask><mask id="prefix__b" fill="#fff"><path d="M.616.873h33.662V218.18H.616z" fill-rule="evenodd"/></mask><mask id="prefix__c" fill="#fff"><path d="M.765.344h31.401v280.76H.766z" fill-rule="evenodd"/></mask><mask id="prefix__d" fill="#fff"><path d="M.895.136h66.469v147.736H.895z" fill-rule="evenodd"/></mask><mask id="prefix__e" fill="#fff"><path d="M.034.443H34.44v45.352H.034z" fill-rule="evenodd"/></mask><mask id="prefix__f" fill="#fff"><path d="M.282.873h33.674V218.18H.282z" fill-rule="evenodd"/></mask><g fill="#2066a3" fill-rule="evenodd" opacity=".103"><path d="M5.573 3.07h1.239v-51.904H5.573z"/><path d="M4.025 6.141c0 1.19.966 2.155 2.155 2.155 1.189 0 2.167-.966 2.167-2.155S7.37 3.986 6.18 3.986a2.156 2.156 0 00-2.155 2.155zm5.548 0A3.388 3.388 0 016.18 9.522c-1.87 0-3.381-1.51-3.381-3.38s1.51-3.382 3.38-3.382c1.871 0 3.394 1.511 3.394 3.381zM1.276 87.31c0 1.19.966 2.155 2.142 2.155 1.177 0 2.155-.966 2.155-2.155s-.978-2.155-2.155-2.155a2.154 2.154 0 00-2.142 2.155zm5.523 0a3.375 3.375 0 11-6.75 0c0-1.87 1.511-3.393 3.37-3.393a3.388 3.388 0 013.38 3.393zM15.035 32.88c0 1.201.966 2.155 2.167 2.155s2.143-.942 2.143-2.155a2.151 2.151 0 00-2.143-2.143c-1.201 0-2.167.966-2.167 2.143zm5.548 0a3.396 3.396 0 01-3.38 3.393 3.399 3.399 0 01-3.394-3.393c0-1.858 1.523-3.369 3.393-3.369 1.858 0 3.381 1.511 3.381 3.369zM1.276 59.098c0 1.189.966 2.155 2.142 2.155a2.164 2.164 0 002.155-2.155 2.156 2.156 0 00-2.155-2.155 2.146 2.146 0 00-2.142 2.155zm5.523 0a3.375 3.375 0 11-6.75 0 3.375 3.375 0 116.75 0zM1.276 70.083c0 1.19.966 2.155 2.142 2.155 1.177 0 2.155-.966 2.155-2.155s-.978-2.155-2.155-2.155a2.154 2.154 0 00-2.142 2.155zm5.523 0a3.375 3.375 0 11-6.75 0c0-1.87 1.511-3.393 3.37-3.393a3.388 3.388 0 013.38 3.393zM28.819 70.083c0 1.19.966 2.155 2.155 2.155s2.155-.966 2.155-2.155-.966-2.155-2.155-2.155-2.155.966-2.155 2.155zm5.536 0c0 1.87-1.511 3.381-3.381 3.381s-3.381-1.51-3.381-3.38 1.51-3.394 3.38-3.394 3.382 1.523 3.382 3.393zM72.883-2.9c0 1.214.942 2.156 2.155 2.156 1.177 0 2.13-.966 2.13-2.155s-.953-2.155-2.13-2.155A2.156 2.156 0 0072.883-2.9zm5.512 0c0 1.87-1.499 3.382-3.357 3.382s-3.38-1.511-3.38-3.381c0-1.858 1.523-3.381 3.38-3.381s3.357 1.523 3.357 3.38zM70.11 11.677c0 1.202.94 2.13 2.154 2.13 1.19 0 2.168-.953 2.168-2.13a2.167 2.167 0 00-2.168-2.155 2.125 2.125 0 00-2.155 2.155zm5.548 0c0 1.858-1.524 3.369-3.394 3.369-1.857 0-3.38-1.511-3.38-3.369a3.388 3.388 0 016.774 0zM59.1 11.207c0 1.213.94 2.155 2.167 2.155 1.164 0 2.117-.966 2.117-2.155 0-1.177-.953-2.143-2.117-2.143-1.226 0-2.168.941-2.168 2.143zm5.523 0c0 1.87-1.511 3.38-3.356 3.38a3.388 3.388 0 01-3.394-3.38c0-1.858 1.524-3.369 3.394-3.369a3.37 3.37 0 013.356 3.369zM59.1 61.872c0 1.177.965 2.143 2.167 2.143 1.164 0 2.117-.966 2.117-2.143 0-1.201-.953-2.167-2.117-2.167a2.139 2.139 0 00-2.168 2.167zm5.523 0a3.37 3.37 0 01-3.356 3.369c-1.87 0-3.394-1.511-3.394-3.369a3.399 3.399 0 013.394-3.393c1.845 0 3.356 1.523 3.356 3.393zM72.883 48.311c0 1.189.966 2.143 2.155 2.143 1.177 0 2.13-.954 2.13-2.143 0-1.201-.953-2.167-2.13-2.167a2.16 2.16 0 00-2.155 2.167zm5.512 0c0 1.858-1.499 3.369-3.357 3.369s-3.38-1.511-3.38-3.369c0-1.87 1.523-3.393 3.38-3.393s3.357 1.523 3.357 3.393zM45.328 48.311c0 1.189.966 2.143 2.155 2.143a2.154 2.154 0 002.155-2.143 2.167 2.167 0 00-2.155-2.167 2.16 2.16 0 00-2.155 2.167zm5.536 0c0 1.858-1.511 3.369-3.381 3.369s-3.394-1.511-3.394-3.369c0-1.87 1.524-3.393 3.394-3.393s3.38 1.523 3.38 3.393zM48.09 138.112c0 1.201.953 2.155 2.142 2.155a2.156 2.156 0 002.155-2.155c0-1.177-.978-2.143-2.155-2.143a2.143 2.143 0 00-2.143 2.143zm5.523 0c0 1.882-1.523 3.393-3.381 3.393s-3.369-1.51-3.369-3.393c0-1.858 1.511-3.381 3.369-3.381s3.381 1.523 3.381 3.38zM48.09 39.122c0 1.189.965 2.142 2.154 2.142 1.177 0 2.143-.953 2.143-2.142s-.966-2.155-2.143-2.155a2.133 2.133 0 00-2.155 2.155zm5.523 0c0 1.87-1.51 3.368-3.369 3.368s-3.38-1.498-3.38-3.368 1.523-3.381 3.38-3.381 3.369 1.51 3.369 3.38zM37.08 114.296c0 1.19.953 2.143 2.13 2.143 1.189 0 2.167-.954 2.167-2.143a2.16 2.16 0 00-2.167-2.155c-1.177 0-2.13.954-2.13 2.155zm5.523 0a3.396 3.396 0 01-3.393 3.381c-1.858 0-3.357-1.523-3.357-3.38 0-1.87 1.499-3.394 3.357-3.394a3.399 3.399 0 013.393 3.393zM37.08 132.526c0 1.202.953 2.155 2.13 2.155a2.16 2.16 0 002.167-2.155c0-1.189-.978-2.142-2.167-2.142-1.177 0-2.13.953-2.13 2.142zm5.523 0a3.399 3.399 0 01-3.393 3.394c-1.858 0-3.357-1.524-3.357-3.394 0-1.857 1.499-3.38 3.357-3.38a3.396 3.396 0 013.393 3.38zM59.1 208.741c0 1.19.978 2.143 2.167 2.143a2.122 2.122 0 002.117-2.143c0-1.201-.94-2.155-2.117-2.155a2.16 2.16 0 00-2.168 2.155zm5.523 0c0 1.858-1.511 3.381-3.356 3.381a3.396 3.396 0 01-3.394-3.38 3.399 3.399 0 013.394-3.394c1.845 0 3.356 1.523 3.356 3.393zM70.11 117.058c0 1.201.965 2.155 2.154 2.155a2.16 2.16 0 002.168-2.155c0-1.177-.979-2.155-2.168-2.155a2.164 2.164 0 00-2.155 2.155zm5.548 0a3.388 3.388 0 11-6.774 0 3.393 3.393 0 013.38-3.381 3.396 3.396 0 013.394 3.381zM48.09 185.842c0 1.201.978 2.167 2.154 2.167a2.149 2.149 0 002.143-2.167 2.146 2.146 0 00-2.143-2.155 2.164 2.164 0 00-2.155 2.155zm5.523 0c0 1.87-1.51 3.381-3.369 3.381s-3.38-1.51-3.38-3.38c0-1.859 1.523-3.37 3.38-3.37s3.369 1.511 3.369 3.37zM48.09 228.656c0 1.201.978 2.167 2.154 2.167a2.149 2.149 0 002.143-2.167 2.146 2.146 0 00-2.143-2.155 2.164 2.164 0 00-2.155 2.155zm5.523 0c0 1.87-1.51 3.38-3.369 3.38s-3.38-1.51-3.38-3.38c0-1.858 1.523-3.381 3.38-3.381s3.369 1.523 3.369 3.38zM15.035 105.355a2.154 2.154 0 104.31 0 2.154 2.154 0 10-4.31 0zm5.548 0a3.388 3.388 0 01-6.774 0 3.388 3.388 0 016.774 0zM28.819 147.76c0 1.2.966 2.154 2.155 2.154s2.155-.953 2.155-2.155c0-1.2-.966-2.154-2.155-2.154s-2.155.953-2.155 2.154zm5.536 0c0 1.857-1.511 3.38-3.381 3.38s-3.381-1.523-3.381-3.38c0-1.87 1.51-3.394 3.38-3.394s3.382 1.523 3.382 3.393zM15.06 157.32c0 1.19.953 2.155 2.142 2.155 1.177 0 2.143-.966 2.143-2.155s-.966-2.155-2.143-2.155a2.146 2.146 0 00-2.142 2.155zm5.523 0c0 1.87-1.523 3.394-3.38 3.394s-3.37-1.524-3.37-3.394 1.512-3.38 3.37-3.38 3.38 1.51 3.38 3.38zM26.07 199.923c0 1.177.953 2.155 2.13 2.155a2.164 2.164 0 002.155-2.155 2.149 2.149 0 00-2.155-2.154c-1.177 0-2.13.953-2.13 2.154zm5.523 0a3.396 3.396 0 01-3.393 3.381c-1.846 0-3.356-1.523-3.356-3.38 0-1.883 1.51-3.394 3.356-3.394a3.39 3.39 0 013.393 3.393z"/><path d="M1.598 3.836c0 1.19.953 2.155 2.142 2.155a2.154 2.154 0 002.143-2.155A2.146 2.146 0 003.74 1.681a2.138 2.138 0 00-2.142 2.155zm5.523 0a3.393 3.393 0 01-3.38 3.381c-1.858 0-3.37-1.523-3.37-3.38 0-1.87 1.512-3.394 3.37-3.394a3.396 3.396 0 013.38 3.393zM23.618 43.157c0 1.19.953 2.143 2.13 2.143 1.214 0 2.167-.941 2.167-2.143a2.167 2.167 0 00-2.167-2.154c-1.177 0-2.13.966-2.13 2.154zm5.523 0a3.396 3.396 0 01-3.393 3.381c-1.858 0-3.356-1.523-3.356-3.38 0-1.87 1.498-3.394 3.356-3.394a3.399 3.399 0 013.393 3.393z" mask="url(#prefix__a)" transform="translate(13.462 213.624)"/><path d="M4.025 153.283c0 1.201.966 2.155 2.155 2.155a2.16 2.16 0 002.167-2.155 2.167 2.167 0 00-2.167-2.155 2.156 2.156 0 00-2.155 2.155zm5.548 0a3.399 3.399 0 01-3.393 3.393 3.388 3.388 0 010-6.774 3.396 3.396 0 013.393 3.381zM4.025 244.582c0 1.202.978 2.155 2.155 2.155a2.16 2.16 0 002.167-2.155 2.167 2.167 0 00-2.167-2.155 2.164 2.164 0 00-2.155 2.155zm5.548 0a3.39 3.39 0 01-3.393 3.394 3.38 3.38 0 01-3.381-3.394 3.385 3.385 0 013.38-3.38 3.396 3.396 0 013.394 3.38zM15.06 141.79c0 1.201.953 2.155 2.142 2.155a2.146 2.146 0 002.143-2.155 2.143 2.143 0 00-4.285 0zm5.523 0c0 1.87-1.523 3.393-3.38 3.393s-3.37-1.523-3.37-3.393c0-1.858 1.512-3.38 3.37-3.38s3.38 1.522 3.38 3.38zM26.07 104.128c0 1.19.953 2.155 2.13 2.155a2.156 2.156 0 002.155-2.155 2.156 2.156 0 00-2.155-2.154c-1.177 0-2.13.966-2.13 2.154zm5.523 0a3.388 3.388 0 01-3.393 3.381c-1.846 0-3.356-1.51-3.356-3.38 0-1.87 1.51-3.394 3.356-3.394a3.399 3.399 0 013.393 3.393zM16.583 30.576h1.226v-79.41h-1.226z"/><path d="M39.829-48.834v64.326h-11.01v44.213H6.179v-1.226h21.414V14.266h11.01v-63.1z"/><path d="M50.864-48.834v82.717H39.829v45.105h-11.01v20.038H16.583V87.917H6.18v-1.226h11.63V97.8h9.783V77.75h11.01V32.656h11.035v-81.49zM60.647 59.098h1.227V13.609h-1.227zM50.864 41.623v49.068H39.829v20.831h-1.226V89.465h11.035V41.623zM28.2 147.14v1.239H5.573v-20.893h11.01v-19.432h1.226v20.658H6.8v18.428z"/><path d="M28.819 106.89v27.098h-11.01v5.04h-1.226v-6.266h11.01V106.89zM61.874 156.268v49.7h-1.227v-48.462h-9.783v13.995H38.603v-36.2h1.226v34.974h9.809v-14.007z"/><path d="M50.864 188.629v14.23H39.829v9.56h11.01v13.463h-1.226v-12.236h-11.01V201.62h11.035V188.63zM17.81 185.235v24.113H6.8v32.473H5.572v-33.699h11.01v-21.66H5.573V156.23H6.8v29.004zM28.819 178.238v19.122h-1.226v-17.896h-11.01v-19.37h1.226v18.144zM39.829 228.47v24.806h-1.226v-23.568h-9.784v8.868H16.583v-18.354h1.226v17.128h9.784v-8.88zM83.893 40.756v24.1h-11.01v22.615h-11.01v25.438H50.84v22.392h-1.226v-23.618h11.034v-25.45h11.01V63.618h11.01V41.982h-11.01V14.377h1.226v26.38zM6.18 70.702H28.2v-1.226H6.18z"/><path d="M.616 7.679h22.045V6.453H.616zM34.278 105.74v35.581h-11.01v34.405h-11.01v43.06h-1.226V174.5h11.01v-34.416h11.01v-33.104h-11.01V78.692h1.226v27.048z" mask="url(#prefix__b)" transform="translate(49.616 41.24)"/><path d="M71.657 172.962h1.226V155.6h-1.226zM262.38 213.596c0 1.201.954 2.167 2.155 2.167a2.151 2.151 0 002.155-2.167c0-1.176-.978-2.142-2.155-2.142a2.146 2.146 0 00-2.155 2.142zm5.536 0a3.388 3.388 0 11-6.774 0c0-1.858 1.523-3.369 3.393-3.369 1.858 0 3.381 1.511 3.381 3.37zM265.155 231.12c0 1.177.953 2.143 2.142 2.143a2.146 2.146 0 002.155-2.143c0-1.189-.954-2.167-2.155-2.167s-2.142.966-2.142 2.167zm5.536 0c0 1.87-1.524 3.369-3.394 3.369-1.858 0-3.38-1.499-3.38-3.369s1.522-3.38 3.38-3.38c1.87 0 3.394 1.51 3.394 3.38zM265.155 199.032c0 1.213.94 2.142 2.142 2.142s2.155-.953 2.155-2.142c0-1.164-.954-2.13-2.155-2.13s-2.142.94-2.142 2.13zm5.536 0a3.38 3.38 0 01-3.394 3.38 3.377 3.377 0 01-3.38-3.38c0-1.858 1.522-3.369 3.38-3.369 1.87 0 3.394 1.511 3.394 3.369zM276.152 199.502c0 1.177.966 2.13 2.155 2.13 1.214 0 2.167-.928 2.167-2.13 0-1.213-.953-2.142-2.167-2.142a2.146 2.146 0 00-2.155 2.142zm5.536 0a3.375 3.375 0 01-3.38 3.369c-1.859 0-3.382-1.51-3.382-3.369a3.385 3.385 0 013.381-3.38c1.87 0 3.381 1.51 3.381 3.38zM276.152 148.85c0 1.176.966 2.142 2.155 2.142 1.214 0 2.167-.954 2.167-2.143s-.966-2.155-2.167-2.155a2.156 2.156 0 00-2.155 2.155zm5.536 0a3.385 3.385 0 01-3.38 3.38 3.393 3.393 0 01-3.382-3.38 3.377 3.377 0 013.381-3.382 3.37 3.37 0 013.381 3.381zM262.38 162.398a2.14 2.14 0 002.155 2.155 2.156 2.156 0 002.155-2.155c0-1.176-.978-2.142-2.155-2.142a2.146 2.146 0 00-2.155 2.142zm5.536 0a3.388 3.388 0 11-6.774 0 3.396 3.396 0 013.393-3.38 3.393 3.393 0 013.381 3.38zM289.936 162.398c0 1.201.966 2.155 2.155 2.155a2.149 2.149 0 100-4.297 2.154 2.154 0 00-2.155 2.142zm5.549 0c0 1.883-1.524 3.393-3.394 3.393s-3.38-1.51-3.38-3.393c0-1.858 1.51-3.38 3.38-3.38s3.394 1.522 3.394 3.38zM287.187 72.585c0 1.201.966 2.155 2.142 2.155a2.146 2.146 0 002.143-2.155 2.154 2.154 0 00-2.143-2.155 2.154 2.154 0 00-2.142 2.155zm5.523 0a3.385 3.385 0 01-3.38 3.38 3.367 3.367 0 01-3.37-3.38 3.375 3.375 0 013.37-3.381 3.393 3.393 0 013.38 3.38zM287.162 171.587c0 1.19.966 2.143 2.167 2.143a2.128 2.128 0 002.143-2.143 2.151 2.151 0 00-2.143-2.142c-1.2 0-2.167.966-2.167 2.142zm5.548 0a3.385 3.385 0 01-3.38 3.381 3.38 3.38 0 110-6.762 3.385 3.385 0 013.38 3.381zM298.21 96.413c0 1.189.953 2.155 2.117 2.155 1.201 0 2.155-.966 2.155-2.155s-.954-2.155-2.155-2.155c-1.164 0-2.118.966-2.118 2.155zm5.51 0a3.399 3.399 0 01-3.393 3.393c-1.845 0-3.356-1.523-3.356-3.393s1.51-3.381 3.356-3.381c1.87 0 3.393 1.51 3.393 3.38zM298.21 78.183a2.13 2.13 0 002.117 2.142 2.138 2.138 0 002.155-2.142 2.151 2.151 0 00-2.155-2.168c-1.164 0-2.118.966-2.118 2.168zm5.51 0a3.396 3.396 0 01-3.393 3.38c-1.845 0-3.356-1.523-3.356-3.38 0-1.87 1.51-3.394 3.356-3.394a3.399 3.399 0 013.393 3.394zM276.152 1.968a2.162 2.162 0 104.322 0 2.149 2.149 0 00-2.167-2.143 2.146 2.146 0 00-2.155 2.143zm5.536 0c0 1.87-1.51 3.393-3.38 3.393a3.396 3.396 0 01-3.382-3.393 3.385 3.385 0 013.381-3.381c1.87 0 3.381 1.51 3.381 3.38zM265.155 93.651a2.149 2.149 0 104.297 0 2.149 2.149 0 10-4.297 0zm5.536 0a3.396 3.396 0 01-3.394 3.381 3.393 3.393 0 01-3.38-3.38 3.396 3.396 0 013.38-3.394 3.399 3.399 0 013.394 3.393zM287.162 24.855c0 1.2.966 2.167 2.167 2.167 1.177 0 2.143-.966 2.143-2.167a2.154 2.154 0 10-4.31 0zm5.548 0a3.396 3.396 0 01-3.38 3.393 3.388 3.388 0 110-6.774 3.393 3.393 0 013.38 3.38z"/><path d="M12.772 234.673v46.554h-1.226v-45.328H1.143v-1.226z" mask="url(#prefix__c)" transform="translate(266.154 -21.684)"/><path d="M277.7 197.1h1.226V151.61H277.7zM300.946 99.187v22.057h-11.01v47.83h-1.226v-49.056h11.01V99.187zM300.946 39.208v36.2h-1.226V40.435h-9.784v14.007H277.7v-49.7h1.226v48.462h9.784V39.208z"/><path d="M300.946-2.949V9.077h-11.01v13.016h-1.226V7.85h11.01v-9.56h-11.01v-13.475h1.226v12.236zM266.69 259.42h1.239v-25.538h-1.239zM289.936 75.409v23.617h-11.01v25.45h-11.01v22.602h-11.022v21.649h11.022v27.605h-1.226v-26.367h-11.01v-24.1h11.01v-22.627h11.01V97.8h11.01V75.409z"/><path d="M267.297 163.03h22.02v-1.239h-22.02zM278.926-48.834v44.151h-11.01v34.28h-11.022V62.59h11.022v28.188h-1.226V63.817h-11.01V28.372h11.01V-5.921h11.01v-42.913z"/><path d="M266.69 55.11h1.239V37.76h-1.239zM246.206 259.42h1.239v-51.78h-1.239z"/><path d="M244.658 204.568a2.16 2.16 0 002.167 2.155c1.19 0 2.155-.966 2.155-2.155s-.966-2.155-2.155-2.155a2.16 2.16 0 00-2.167 2.155zm5.56 0c0 1.87-1.535 3.38-3.393 3.38-1.87 0-3.38-1.51-3.38-3.38s1.51-3.394 3.38-3.394a3.407 3.407 0 013.394 3.394zM247.445 123.399c0 1.214.94 2.142 2.155 2.142a2.149 2.149 0 000-4.297 2.14 2.14 0 00-2.155 2.155zm5.51 0a3.37 3.37 0 01-3.355 3.369c-1.883 0-3.394-1.511-3.394-3.37s1.511-3.38 3.394-3.38c1.845 0 3.356 1.523 3.356 3.38zM233.66 177.83a2.14 2.14 0 002.143 2.13c1.201 0 2.167-.954 2.167-2.13a2.16 2.16 0 00-2.167-2.156 2.138 2.138 0 00-2.142 2.155zm5.536 0a3.37 3.37 0 01-3.393 3.368c-1.858 0-3.38-1.499-3.38-3.369s1.522-3.393 3.38-3.393a3.39 3.39 0 013.393 3.393zM247.445 151.611c0 1.189.953 2.155 2.155 2.155 1.151 0 2.13-.966 2.13-2.155s-.979-2.167-2.13-2.167a2.16 2.16 0 00-2.155 2.167zm5.51 0c0 1.87-1.51 3.393-3.355 3.393-1.883 0-3.394-1.523-3.394-3.393s1.511-3.38 3.394-3.38c1.845 0 3.356 1.51 3.356 3.38zM175.837 213.596c0 1.201.966 2.167 2.118 2.167a2.162 2.162 0 002.167-2.167c0-1.189-.954-2.142-2.167-2.142-1.152 0-2.118.966-2.118 2.142zm5.51 0a3.383 3.383 0 01-3.392 3.393c-1.846 0-3.344-1.51-3.344-3.393 0-1.858 1.498-3.369 3.344-3.369a3.377 3.377 0 013.393 3.37zM178.574 231.108c0 1.189.966 2.155 2.155 2.155a2.16 2.16 0 002.167-2.155 2.144 2.144 0 00-2.167-2.155 2.164 2.164 0 00-2.155 2.155zm5.548 0a3.388 3.388 0 01-3.393 3.38c-1.858 0-3.369-1.51-3.369-3.38s1.511-3.369 3.369-3.369c1.87 0 3.393 1.499 3.393 3.369zM178.574 199.032c0 1.189.966 2.142 2.155 2.142 1.213 0 2.167-.929 2.167-2.142 0-1.177-.966-2.143-2.167-2.143a2.154 2.154 0 00-2.155 2.143zm5.548 0a3.38 3.38 0 01-3.393 3.38 3.367 3.367 0 01-3.369-3.38c0-1.858 1.511-3.381 3.369-3.381a3.396 3.396 0 013.393 3.38zM189.62 199.502a2.13 2.13 0 002.131 2.13c1.189 0 2.155-.928 2.155-2.13 0-1.2-.978-2.155-2.155-2.155s-2.13.954-2.13 2.155zm5.512 0c0 1.858-1.523 3.369-3.381 3.369a3.364 3.364 0 01-3.369-3.369c0-1.87 1.499-3.393 3.369-3.393a3.396 3.396 0 013.381 3.393zM189.62 148.85a2.14 2.14 0 002.131 2.142 2.146 2.146 0 002.155-2.143 2.14 2.14 0 00-2.155-2.155c-1.177 0-2.13.966-2.13 2.155zm5.512 0a3.393 3.393 0 01-3.381 3.38 3.375 3.375 0 01-3.369-3.38 3.36 3.36 0 013.369-3.382 3.377 3.377 0 013.381 3.381zM175.837 162.398c0 1.189.966 2.143 2.118 2.143 1.213 0 2.167-.93 2.167-2.143 0-1.176-.966-2.142-2.167-2.142-1.152 0-2.118.966-2.118 2.142zm5.51 0a3.372 3.372 0 01-3.392 3.381c-1.846 0-3.344-1.498-3.344-3.38 0-1.859 1.498-3.382 3.344-3.382a3.388 3.388 0 013.393 3.381zM203.368 162.398c0 1.189.966 2.143 2.155 2.143 1.213 0 2.167-.93 2.167-2.143 0-1.176-.966-2.142-2.167-2.142a2.154 2.154 0 00-2.155 2.142zm5.536 0a3.37 3.37 0 01-3.381 3.381 3.377 3.377 0 01-3.381-3.38 3.393 3.393 0 013.38-3.382 3.385 3.385 0 013.382 3.381zM200.618 72.585c0 1.201.979 2.155 2.155 2.155a2.146 2.146 0 002.143-2.155 2.154 2.154 0 00-2.143-2.155 2.164 2.164 0 00-2.155 2.155zm5.524 0a3.367 3.367 0 01-3.369 3.38 3.385 3.385 0 01-3.38-3.38 3.393 3.393 0 013.38-3.381 3.375 3.375 0 013.369 3.38zM200.618 171.587a2.149 2.149 0 004.298 0c0-1.2-.954-2.142-2.167-2.142-1.152 0-2.13.966-2.13 2.142zm5.524 0a3.38 3.38 0 01-3.393 3.381c-1.846 0-3.357-1.51-3.357-3.38 0-1.87 1.511-3.382 3.357-3.382a3.38 3.38 0 013.393 3.381zM211.628 96.413a2.16 2.16 0 002.168 2.155c1.164 0 2.13-.966 2.13-2.155s-.966-2.155-2.13-2.155a2.16 2.16 0 00-2.168 2.155zm5.524 0c0 1.87-1.511 3.393-3.356 3.393-1.87 0-3.381-1.523-3.381-3.393s1.51-3.381 3.38-3.381c1.846 0 3.357 1.51 3.357 3.38zM211.628 78.183c0 1.189.966 2.142 2.168 2.142a2.14 2.14 0 002.13-2.142c0-1.202-.966-2.168-2.13-2.168a2.162 2.162 0 00-2.168 2.168zm5.524 0c0 1.857-1.511 3.38-3.356 3.38a3.388 3.388 0 010-6.774c1.845 0 3.356 1.524 3.356 3.394zM189.62 1.968c0 1.201.954 2.167 2.131 2.167s2.155-.966 2.155-2.167c0-1.19-.978-2.143-2.155-2.143s-2.13.954-2.13 2.143zm5.512 0a3.396 3.396 0 01-3.381 3.393c-1.87 0-3.369-1.523-3.369-3.393a3.367 3.367 0 013.369-3.381 3.385 3.385 0 013.381 3.38zM178.574 93.651c0 1.189.966 2.155 2.155 2.155a2.162 2.162 0 10-2.155-2.155zm5.548 0a3.396 3.396 0 01-3.393 3.381c-1.858 0-3.369-1.523-3.369-3.38 0-1.871 1.511-3.394 3.369-3.394a3.399 3.399 0 013.393 3.393zM200.618 24.855c0 1.2.979 2.167 2.13 2.167a2.162 2.162 0 100-4.322c-1.151 0-2.13.966-2.13 2.155zm5.524 0a3.39 3.39 0 01-3.393 3.393c-1.846 0-3.357-1.523-3.357-3.393 0-1.858 1.511-3.381 3.357-3.381a3.388 3.388 0 013.393 3.38zM233.66 105.355a2.154 2.154 0 102.143-2.155 2.154 2.154 0 00-2.142 2.155zm5.536 0a3.38 3.38 0 01-3.393 3.38 3.385 3.385 0 01-3.38-3.38 3.385 3.385 0 013.38-3.381 3.38 3.38 0 013.393 3.38zM219.876 62.95c0 1.189.954 2.155 2.155 2.155 1.19 0 2.155-.966 2.155-2.155s-.966-2.155-2.155-2.155a2.149 2.149 0 00-2.155 2.155zm5.549 0a3.399 3.399 0 01-3.394 3.393c-1.857 0-3.38-1.523-3.38-3.393s1.523-3.381 3.38-3.381c1.87 0 3.394 1.51 3.394 3.38zM233.66 53.389c0 1.189.967 2.155 2.143 2.155 1.177 0 2.143-.966 2.143-2.155s-.966-2.155-2.143-2.155a2.154 2.154 0 00-2.142 2.155zm5.512 0a3.367 3.367 0 01-3.369 3.38c-1.858 0-3.38-1.51-3.38-3.38s1.522-3.394 3.38-3.394c1.87 0 3.369 1.524 3.369 3.394zM222.65 10.786c0 1.2.954 2.167 2.156 2.167 1.164 0 2.13-.966 2.13-2.167 0-1.19-.966-2.155-2.13-2.155a2.149 2.149 0 00-2.155 2.155zm5.512 0c0 1.87-1.511 3.393-3.356 3.393a3.399 3.399 0 01-3.394-3.393 3.396 3.396 0 013.394-3.381c1.845 0 3.356 1.523 3.356 3.38zM244.658 57.426a2.16 2.16 0 002.167 2.155 2.156 2.156 0 002.155-2.155 2.149 2.149 0 00-2.155-2.155 2.151 2.151 0 00-2.167 2.155zm5.56 0c0 1.858-1.535 3.381-3.393 3.381a3.388 3.388 0 010-6.774 3.407 3.407 0 013.394 3.393zM233.66 68.919c0 1.189.967 2.155 2.143 2.155a2.154 2.154 0 002.143-2.155c0-1.201-.966-2.167-2.143-2.167-1.176 0-2.142.966-2.142 2.167zm5.512 0a3.375 3.375 0 01-3.369 3.381 3.393 3.393 0 01-3.38-3.381 3.396 3.396 0 013.38-3.393c1.87 0 3.369 1.523 3.369 3.393zM222.65 106.58c0 1.19.954 2.156 2.156 2.156 1.164 0 2.13-.966 2.13-2.155s-.966-2.155-2.13-2.155a2.149 2.149 0 00-2.155 2.155zm5.512 0c0 1.87-1.511 3.394-3.356 3.394-1.87 0-3.394-1.523-3.394-3.393s1.523-3.381 3.394-3.381c1.845 0 3.356 1.51 3.356 3.38z"/><path d="M43.189 107.077c0 1.177.953 2.143 2.155 2.143a2.149 2.149 0 000-4.298 2.125 2.125 0 00-2.155 2.155zm5.51 0c0 1.858-1.51 3.381-3.355 3.381a3.396 3.396 0 01-3.394-3.38 3.38 3.38 0 013.394-3.382 3.364 3.364 0 013.356 3.381zM55.747 147.872h1.226V68.586h-1.226z" mask="url(#prefix__d)" transform="translate(179.462 111.547)"/><path d="M44.724 147.872h1.239V109.84h-1.239z" mask="url(#prefix__d)" transform="translate(179.462 111.547)"/><path d="M67.364 39.445v1.238H45.963v44.214H34.94v63.1h-1.226V83.67h11.01V39.445z" mask="url(#prefix__d)" transform="translate(179.462 111.547)"/><path d="M67.364 11.233v1.238H55.747V1.362h-9.784v20.051H34.94v45.092H23.906v81.491H22.68v-82.73h11.035V20.176h11.01V.136H56.96v11.097zM12.908 101.442v46.554H11.67v-45.328H1.267v-1.226z" mask="url(#prefix__d)" transform="translate(179.462 111.547)"/><path d="M191.132 197.1h1.238V151.61h-1.238zM214.402 99.187v22.057h-11.034v47.83h-1.226v-49.056h11.034V99.187zM247.445 62.33v20.893h-11.023v19.432h-1.213V81.997h10.997V63.57h-21.4V62.33z"/><path d="M236.422 71.68v6.267h-10.997v25.86h-1.239V76.72h11.023v-5.04zM214.402 39.208v36.2h-1.226V40.435h-9.808v14.007h-12.236v-49.7h1.238v48.462h9.772V39.208z"/><path d="M214.402-2.949V9.077h-11.034v13.016h-1.226V7.85h11.034v-9.56h-11.01v-13.475h1.227v12.236zM247.445-31.112V2.587h-11.023v21.66h11.023V54.48h-1.239V25.474H235.21V1.36h10.997v-32.473zM236.422 31.245v19.37h-1.213V32.47h-11.023v-19.11h1.239v17.884zM101.306 252.372h1.226v-25.537h-1.226zM203.393 75.409v23.617H192.37v25.45h-11.022v22.602h-11.01v21.649h11.01v27.605h-1.226v-26.367h-11.01v-24.1h11.01v-22.627h11.01V97.8h11.034V75.409zM247.445 140.626c0 1.201.94 2.142 2.155 2.142 1.151 0 2.13-.966 2.13-2.142 0-1.189-.979-2.155-2.13-2.155a2.149 2.149 0 00-2.155 2.155zm5.51 0c0 1.87-1.51 3.369-3.355 3.369-1.883 0-3.394-1.499-3.394-3.37s1.511-3.392 3.394-3.392c1.845 0 3.356 1.523 3.356 3.393zM219.876 140.626c0 1.201.942 2.142 2.155 2.142a2.154 2.154 0 002.155-2.142 2.156 2.156 0 00-2.155-2.155 2.149 2.149 0 00-2.155 2.155zm5.549 0c0 1.87-1.524 3.369-3.394 3.369-1.857 0-3.38-1.499-3.38-3.37s1.523-3.392 3.38-3.392a3.399 3.399 0 013.394 3.393z"/><path d="M224.806 141.245h22.02v-1.226h-22.02zM94.309 223.132c0 1.202.941 2.143 2.155 2.143a2.149 2.149 0 000-4.298 2.149 2.149 0 00-2.155 2.155zm5.511 0c0 1.87-1.51 3.369-3.356 3.369-1.87 0-3.394-1.499-3.394-3.369s1.524-3.393 3.394-3.393c1.845 0 3.356 1.523 3.356 3.393zM66.74 223.132c0 1.202.954 2.143 2.156 2.143s2.155-.966 2.155-2.143a2.149 2.149 0 00-2.155-2.155 2.156 2.156 0 00-2.155 2.155zm5.537 0c0 1.87-1.511 3.369-3.381 3.369s-3.381-1.499-3.381-3.369 1.51-3.393 3.38-3.393 3.382 1.523 3.382 3.393z"/><path d="M71.67 223.751h22.02v-1.238H71.67zM82.68 230.241a2.13 2.13 0 002.142-2.155 2.151 2.151 0 00-2.142-2.142 2.149 2.149 0 100 4.297zm0-5.511c1.857 0 3.368 1.498 3.368 3.356s-1.51 3.381-3.368 3.381c-1.87 0-3.381-1.523-3.381-3.38s1.51-3.357 3.38-3.357zM82.68 257.81c1.201 0 2.142-.967 2.142-2.168a2.149 2.149 0 10-4.297 0 2.16 2.16 0 002.155 2.167zm0-5.55c1.857 0 3.368 1.512 3.368 3.382a3.375 3.375 0 11-6.75 0c0-1.87 1.512-3.381 3.382-3.381z"/><path d="M82.06 252.868h1.227V230.86H82.06zM82.68 75.669a2.13 2.13 0 002.142-2.155c0-1.164-.966-2.13-2.142-2.13a2.143 2.143 0 00-2.155 2.13c0 1.189.953 2.155 2.155 2.155zm0-5.512a3.362 3.362 0 013.368 3.357c0 1.87-1.51 3.393-3.368 3.393a3.388 3.388 0 01-3.381-3.393c0-1.858 1.51-3.357 3.38-3.357zM82.68 103.237a2.13 2.13 0 002.142-2.155c0-1.19-.966-2.167-2.142-2.167-1.202 0-2.155.978-2.155 2.167s.953 2.155 2.155 2.155zm0-5.549c1.857 0 3.368 1.524 3.368 3.394a3.375 3.375 0 11-6.75 0c0-1.87 1.512-3.394 3.382-3.394z"/><path d="M82.06 98.308h1.227v-22.02H82.06zM255.693 84.784a2.13 2.13 0 002.142-2.155 2.151 2.151 0 00-2.142-2.143 2.149 2.149 0 100 4.297zm0-5.524a3.372 3.372 0 013.368 3.369c0 1.857-1.51 3.38-3.368 3.38a3.388 3.388 0 01-3.394-3.38 3.377 3.377 0 013.394-3.369zM255.693 112.34a2.13 2.13 0 002.142-2.155 2.149 2.149 0 10-4.297 0c0 1.188.953 2.154 2.155 2.154zm0-5.536a3.375 3.375 0 013.368 3.38c0 1.87-1.51 3.382-3.368 3.382a3.38 3.38 0 110-6.762z"/><path d="M255.074 107.41h1.238V85.39h-1.238zM289.949 220.284a2.13 2.13 0 002.142-2.155c0-1.164-.966-2.118-2.142-2.118-1.19 0-2.155.954-2.155 2.118 0 1.189.966 2.155 2.155 2.155zm0-5.511a3.354 3.354 0 013.368 3.356c0 1.87-1.498 3.393-3.368 3.393s-3.381-1.523-3.381-3.393c0-1.858 1.51-3.356 3.38-3.356zM289.949 247.852c1.2 0 2.142-.954 2.142-2.155s-.966-2.167-2.142-2.167a2.16 2.16 0 00-2.155 2.167c0 1.189.966 2.155 2.155 2.155zm0-5.536c1.87 0 3.368 1.51 3.368 3.381 0 1.858-1.498 3.381-3.368 3.381s-3.381-1.523-3.381-3.381c0-1.87 1.51-3.381 3.38-3.381z"/><path d="M289.342 242.923h1.226v-22.02h-1.226zM298.866 181.842a2.13 2.13 0 002.142-2.155 2.151 2.151 0 00-2.142-2.143c-1.202 0-2.168.966-2.168 2.143a2.16 2.16 0 002.168 2.155zm0-5.524c1.87 0 3.368 1.511 3.368 3.369s-1.498 3.369-3.368 3.369c-1.87 0-3.381-1.511-3.381-3.369s1.51-3.369 3.38-3.369zM298.866 209.398a2.13 2.13 0 002.142-2.155 2.154 2.154 0 10-2.142 2.155zm0-5.536c1.87 0 3.368 1.51 3.368 3.38s-1.498 3.382-3.368 3.382c-1.87 0-3.381-1.511-3.381-3.381s1.51-3.381 3.38-3.381z"/><path d="M298.246 204.469h1.226V182.46h-1.226zM169.124 102.655a2.13 2.13 0 002.143-2.155 2.149 2.149 0 00-4.298 0c0 1.189.966 2.155 2.155 2.155zm0-5.524c1.87 0 3.369 1.511 3.369 3.369 0 1.87-1.499 3.38-3.369 3.38s-3.393-1.51-3.393-3.38c0-1.858 1.523-3.369 3.393-3.369zM169.124 130.223c1.202 0 2.143-.954 2.143-2.155s-.966-2.167-2.143-2.167a2.16 2.16 0 00-2.155 2.167c0 1.189.966 2.155 2.155 2.155zm0-5.536c1.87 0 3.369 1.51 3.369 3.38 0 1.859-1.499 3.37-3.369 3.37s-3.393-1.511-3.393-3.37a3.388 3.388 0 013.393-3.38z"/><path d="M168.517 125.281h1.227v-22.02h-1.227zM249.6 166.188c1.188 0 2.13-.954 2.13-2.155 0-1.164-.966-2.143-2.13-2.143a2.149 2.149 0 100 4.297zm0-5.511a3.362 3.362 0 013.368 3.356c0 1.87-1.51 3.393-3.368 3.393a3.39 3.39 0 01-3.394-3.393c0-1.858 1.511-3.356 3.394-3.356zM249.6 193.756c1.188 0 2.13-.966 2.13-2.155 0-1.201-.966-2.167-2.13-2.167a2.151 2.151 0 00-2.155 2.167c0 1.189.953 2.155 2.155 2.155zm0-5.548c1.857 0 3.368 1.523 3.368 3.393a3.372 3.372 0 01-3.368 3.369 3.377 3.377 0 01-3.394-3.369 3.39 3.39 0 013.394-3.393z"/><path d="M248.98 188.827h1.239v-22.02h-1.239zM180.729 163.03h22.044v-1.239H180.73zM192.37-48.834v44.151h-11.022v34.28h-11.01V62.59h11.01v28.188h-1.226V63.817h-11.01V28.372h11.01V-5.921h11.01v-42.913z"/><path d="M180.122 55.11h1.226V37.76h-1.226zM159.762 3.07H161v-51.904h-1.238z"/><path d="M158.226 6.141c0 1.19.966 2.155 2.155 2.155s2.142-.966 2.142-2.155A2.143 2.143 0 00160.381 4a2.13 2.13 0 00-2.155 2.142zm5.536 0c0 1.87-1.511 3.381-3.381 3.381S157 8.012 157 6.142s1.51-3.37 3.38-3.37 3.382 1.5 3.382 3.37zM160.988 87.31c0 1.19.978 2.155 2.155 2.155a2.154 2.154 0 002.142-2.155 2.151 2.151 0 00-2.142-2.142 2.138 2.138 0 00-2.155 2.142zm5.523 0a3.367 3.367 0 01-3.368 3.381c-1.858 0-3.381-1.51-3.381-3.38s1.523-3.382 3.38-3.382c1.87 0 3.37 1.511 3.37 3.381zM147.216 32.892c0 1.214.929 2.143 2.155 2.143a2.154 2.154 0 002.155-2.143 2.164 2.164 0 00-2.155-2.155 2.149 2.149 0 00-2.155 2.155zm5.536 0a3.388 3.388 0 01-6.774 0 3.396 3.396 0 013.393-3.38 3.393 3.393 0 013.38 3.38zM160.988 59.098c0 1.189.978 2.155 2.155 2.155 1.176 0 2.142-.966 2.142-2.155s-.966-2.143-2.142-2.143c-1.19 0-2.155.93-2.155 2.143zm5.523 0a3.367 3.367 0 01-3.368 3.381c-1.858 0-3.381-1.51-3.381-3.381s1.523-3.369 3.38-3.369a3.356 3.356 0 013.37 3.369zM160.988 70.083c0 1.19.978 2.155 2.155 2.155a2.154 2.154 0 002.142-2.155 2.151 2.151 0 00-2.142-2.142 2.138 2.138 0 00-2.155 2.142zm5.523 0a3.367 3.367 0 01-3.368 3.381c-1.858 0-3.381-1.51-3.381-3.38s1.523-3.382 3.38-3.382c1.87 0 3.37 1.511 3.37 3.381zM133.432 70.083c0 1.19.966 2.155 2.155 2.155 1.176 0 2.155-.966 2.155-2.155s-.979-2.155-2.155-2.155a2.156 2.156 0 00-2.155 2.155zm5.536 0c0 1.87-1.511 3.381-3.381 3.381s-3.381-1.51-3.381-3.38 1.51-3.394 3.38-3.394 3.382 1.523 3.382 3.393zM89.392-2.9c0 1.19.954 2.156 2.13 2.156A2.133 2.133 0 0093.677-2.9c0-1.19-.978-2.155-2.155-2.155s-2.13.966-2.13 2.155zm5.511 0a3.375 3.375 0 11-6.75 0c0-1.857 1.512-3.38 3.37-3.38a3.385 3.385 0 013.38 3.38zM92.13 11.677c0 1.177.965 2.13 2.166 2.143a2.154 2.154 0 002.155-2.143c0-1.213-.953-2.155-2.155-2.155s-2.167.966-2.167 2.155zm5.547 0c0 1.858-1.523 3.369-3.38 3.369-1.87 0-3.394-1.523-3.394-3.369a3.388 3.388 0 016.774 0zM103.164 11.207c0 1.201.953 2.167 2.142 2.167 1.177 0 2.155-.966 2.155-2.167s-.953-2.143-2.155-2.143a2.143 2.143 0 00-2.142 2.143zm5.523 0a3.396 3.396 0 01-3.38 3.393c-1.858 0-3.37-1.523-3.37-3.393a3.372 3.372 0 013.37-3.369c1.857 0 3.38 1.511 3.38 3.369zM103.164 61.872c0 1.177.953 2.143 2.142 2.143 1.177 0 2.155-.966 2.155-2.143a2.149 2.149 0 10-4.297 0zm5.523 0c0 1.858-1.523 3.369-3.38 3.369a3.372 3.372 0 01-3.37-3.369c0-1.87 1.512-3.393 3.37-3.393a3.396 3.396 0 013.38 3.393zM89.392 48.311c0 1.189.954 2.143 2.13 2.143s2.155-.954 2.155-2.143c0-1.201-.978-2.167-2.155-2.167s-2.13.966-2.13 2.167zm5.511 0a3.375 3.375 0 01-6.75 0c0-1.87 1.512-3.393 3.37-3.393a3.388 3.388 0 013.38 3.393zM116.923 48.311c0 1.189.966 2.143 2.167 2.143a2.143 2.143 0 002.143-2.143c0-1.214-.941-2.155-2.143-2.155a2.16 2.16 0 00-2.167 2.155zm5.548 0c0 1.858-1.523 3.369-3.38 3.369-1.87 0-3.394-1.511-3.394-3.369a3.388 3.388 0 016.774 0zM114.186 138.112c0 1.201.966 2.155 2.143 2.155a2.138 2.138 0 002.142-2.155 2.143 2.143 0 00-2.142-2.143 2.151 2.151 0 00-2.143 2.143zm5.511 0a3.377 3.377 0 01-3.368 3.393 3.388 3.388 0 01-3.381-3.393 3.393 3.393 0 013.38-3.381c1.858 0 3.37 1.523 3.37 3.38zM114.186 39.122c0 1.189.941 2.142 2.118 2.142 1.214 0 2.167-.929 2.167-2.142a2.167 2.167 0 00-2.167-2.155c-1.177 0-2.118.966-2.118 2.155zm5.511 0c0 1.87-1.523 3.368-3.393 3.368-1.845 0-3.356-1.498-3.356-3.368s1.51-3.381 3.356-3.381c1.87 0 3.393 1.51 3.393 3.38zM125.196 114.296c0 1.19.966 2.143 2.155 2.143 1.177 0 2.13-.954 2.13-2.143a2.135 2.135 0 00-2.13-2.155 2.149 2.149 0 00-2.155 2.155zm5.511 0c0 1.858-1.51 3.381-3.356 3.381a3.396 3.396 0 01-3.393-3.38 3.399 3.399 0 013.393-3.394c1.845 0 3.356 1.523 3.356 3.393zM125.196 132.526c0 1.202.966 2.155 2.155 2.155 1.177 0 2.13-.953 2.13-2.155a2.133 2.133 0 00-2.13-2.142 2.146 2.146 0 00-2.155 2.142zm5.511 0c0 1.87-1.51 3.394-3.356 3.394a3.399 3.399 0 01-3.393-3.394 3.396 3.396 0 013.393-3.38c1.845 0 3.356 1.523 3.356 3.38zM103.164 208.741c0 1.19.953 2.143 2.142 2.143a2.154 2.154 0 002.155-2.143 2.156 2.156 0 00-2.155-2.155 2.138 2.138 0 00-2.142 2.155zm5.523 0a3.393 3.393 0 01-3.38 3.381c-1.858 0-3.37-1.523-3.37-3.38 0-1.87 1.512-3.394 3.37-3.394a3.396 3.396 0 013.38 3.393zM92.13 117.058c0 1.201.965 2.155 2.166 2.155a2.156 2.156 0 002.155-2.155 2.173 2.173 0 00-2.155-2.155 2.167 2.167 0 00-2.167 2.155zm5.547 0a3.388 3.388 0 11-6.774 0 3.396 3.396 0 013.393-3.381 3.393 3.393 0 013.381 3.381zM114.186 185.842c0 1.201.941 2.167 2.118 2.167a2.17 2.17 0 002.167-2.167 2.167 2.167 0 00-2.167-2.155c-1.177 0-2.118.966-2.118 2.155zm5.511 0a3.388 3.388 0 01-3.393 3.381c-1.845 0-3.356-1.51-3.356-3.38a3.37 3.37 0 013.356-3.37c1.87 0 3.393 1.511 3.393 3.37zM114.186 228.656c0 1.201.941 2.167 2.118 2.167a2.17 2.17 0 002.167-2.167 2.167 2.167 0 00-2.167-2.155c-1.177 0-2.118.966-2.118 2.155zm5.511 0a3.388 3.388 0 01-3.393 3.38c-1.845 0-3.356-1.51-3.356-3.38 0-1.858 1.51-3.381 3.356-3.381a3.396 3.396 0 013.393 3.38zM147.216 105.355c0 1.188.966 2.154 2.155 2.154a2.164 2.164 0 002.155-2.154 2.164 2.164 0 00-2.155-2.155 2.156 2.156 0 00-2.155 2.155zm5.536 0a3.388 3.388 0 01-6.774 0 3.388 3.388 0 016.774 0zM133.432 147.76c0 1.2.978 2.154 2.155 2.154a2.156 2.156 0 002.155-2.155 2.156 2.156 0 00-2.155-2.154 2.156 2.156 0 00-2.155 2.154zm5.536 0c0 1.857-1.511 3.38-3.381 3.38s-3.381-1.523-3.381-3.38c0-1.87 1.51-3.394 3.38-3.394s3.382 1.523 3.382 3.393zM147.216 157.32c0 1.19.966 2.155 2.155 2.155 1.176 0 2.13-.966 2.13-2.155s-.954-2.155-2.13-2.155a2.156 2.156 0 00-2.155 2.155zm5.511 0c0 1.87-1.51 3.394-3.356 3.394-1.87 0-3.394-1.524-3.394-3.394s1.524-3.38 3.394-3.38c1.845 0 3.356 1.51 3.356 3.38zM136.194 199.923c0 1.177.99 2.155 2.167 2.155 1.176 0 2.13-.978 2.13-2.155a2.135 2.135 0 00-2.13-2.154c-1.177 0-2.167.953-2.167 2.154zm5.523 0c0 1.858-1.498 3.381-3.356 3.381a3.396 3.396 0 01-3.393-3.38 3.39 3.39 0 013.393-3.394c1.858 0 3.356 1.511 3.356 3.393z"/><path d="M23.293 3.836c0 1.19.966 2.155 2.154 2.155 1.177 0 2.13-.966 2.13-2.155a2.135 2.135 0 00-2.13-2.155 2.149 2.149 0 00-2.154 2.155zm5.51 0c0 1.858-1.51 3.381-3.356 3.381a3.396 3.396 0 01-3.393-3.38A3.399 3.399 0 0125.447.442c1.846 0 3.357 1.523 3.357 3.393zM1.273 43.157c0 1.202.94 2.143 2.155 2.143 1.176 0 2.13-.954 2.13-2.143 0-1.188-.954-2.154-2.13-2.154a2.156 2.156 0 00-2.155 2.154zm5.51 0c0 1.858-1.51 3.381-3.355 3.381a3.396 3.396 0 01-3.394-3.38 3.399 3.399 0 013.394-3.394c1.845 0 3.356 1.523 3.356 3.393z" mask="url(#prefix__e)" transform="translate(123.923 213.624)"/><path d="M158.226 153.283c0 1.201.966 2.155 2.155 2.155s2.142-.954 2.142-2.155c0-1.189-.953-2.155-2.142-2.155s-2.155.966-2.155 2.155zm5.536 0c0 1.87-1.511 3.393-3.381 3.393a3.388 3.388 0 010-6.774 3.385 3.385 0 013.38 3.381zM158.226 244.582c0 1.202.966 2.155 2.155 2.155s2.142-.953 2.142-2.155c0-1.189-.953-2.155-2.142-2.155s-2.155.966-2.155 2.155zm5.536 0a3.38 3.38 0 11-6.762 0c0-1.857 1.51-3.38 3.38-3.38s3.382 1.523 3.382 3.38zM147.216 141.79c0 1.201.966 2.155 2.155 2.155 1.176 0 2.13-.954 2.13-2.155a2.133 2.133 0 00-2.13-2.142 2.146 2.146 0 00-2.155 2.142zm5.511 0c0 1.87-1.51 3.393-3.356 3.393a3.399 3.399 0 01-3.394-3.393 3.396 3.396 0 013.394-3.38c1.845 0 3.356 1.522 3.356 3.38zM136.194 104.128c0 1.19.99 2.155 2.167 2.155 1.176 0 2.13-.966 2.13-2.155 0-1.188-.954-2.154-2.13-2.154-1.177 0-2.167.966-2.167 2.154zm5.523 0c0 1.87-1.498 3.381-3.356 3.381a3.388 3.388 0 01-3.393-3.38 3.399 3.399 0 013.393-3.394c1.858 0 3.356 1.523 3.356 3.393zM148.752 30.576h1.226v-79.41h-1.226z"/><path d="M160.38 58.479v1.226h-22.638V15.492h-11.01v-64.326h1.226v63.1h11.01v44.213z"/><path d="M160.38 86.69v1.227h-10.402v11.109h-12.236V78.988h-11.01V33.883h-11.035v-82.717h1.226v81.49h11.035V77.75h11.01V97.8h9.784V86.692zM104.687 59.098h1.226V13.609h-1.226zM127.958 89.465v22.057h-1.226v-20.83h-11.035V41.622h1.226v47.842zM160.988 127.486v20.893H138.36v-1.239h21.4v-18.428h-11.01v-20.658h1.227v19.432z"/><path d="M149.978 132.762v6.266h-1.226v-5.04h-11.01V106.89h1.226v25.872zM127.958 135.3v36.2h-12.26v-13.994h-9.785v48.461h-1.226v-49.7h12.236v14.008h9.809V135.3z"/><path d="M127.958 201.62v12.026h-11.01v12.236h-1.226V212.42h11.01v-9.561h-11.035v-14.23h1.226v12.991zM160.988 156.23v30.231h-11.01v21.661h11.01v33.699h-1.226v-32.473h-11.01v-24.113h11.01v-29.004zM149.978 160.095v19.37h-11.01v17.895h-1.226v-19.122h11.01v-18.143zM149.978 220.222v18.354h-12.236v-8.868h-9.784v23.568h-1.226V228.47h12.236v8.88h9.784v-17.128zM116.948 111.683v23.618h-1.226v-22.392h-11.035V87.471h-11.01V64.857h-11.01v-24.1h11.01v-26.38h1.226v27.605h-11.01v21.636h11.01v22.615h11.01v25.45zM138.36 70.702h22.02v-1.226h-22.02z"/><g><path d="M11.912 7.679h22.044V6.453H11.912zM23.528 174.363v44.238h-1.226V175.59h-11.01v-34.355H.282v-35.531h11.01v-27.01h1.226v28.236H1.508v33.067h11.01v34.367z" mask="url(#prefix__f)" transform="translate(82.385 41.24)"/></g><path d="M93.677 172.962h1.239V155.6h-1.239zM70.122 176.343a2.13 2.13 0 002.155 2.143 2.143 2.143 0 002.142-2.143 2.146 2.146 0 00-2.142-2.155 2.164 2.164 0 00-2.155 2.155zm5.523 0c0 1.87-1.51 3.381-3.368 3.381s-3.381-1.51-3.381-3.38 1.523-3.382 3.38-3.382 3.37 1.511 3.37 3.381zM92.142 176.343c0 1.201.953 2.143 2.167 2.143a2.14 2.14 0 002.13-2.143c0-1.189-.954-2.155-2.13-2.155a2.167 2.167 0 00-2.167 2.155zm5.523 0c0 1.87-1.51 3.381-3.356 3.381-1.87 0-3.394-1.51-3.394-3.38s1.524-3.382 3.394-3.382c1.845 0 3.356 1.511 3.356 3.381z"/><path d="M92.142 152.243c0 1.201.953 2.142 2.167 2.142a2.14 2.14 0 002.13-2.142c0-1.19-.954-2.168-2.13-2.168a2.178 2.178 0 00-2.167 2.168zm5.523 0a3.37 3.37 0 01-3.356 3.368c-1.87 0-3.394-1.51-3.394-3.368a3.388 3.388 0 013.394-3.381c1.845 0 3.356 1.51 3.356 3.38zM178.561 57.86c0 1.2.966 2.142 2.168 2.142 1.189 0 2.13-.966 2.13-2.142 0-1.202-.941-2.155-2.13-2.155-1.177 0-2.168.953-2.168 2.155zm5.524 0a3.362 3.362 0 01-3.356 3.368 3.375 3.375 0 110-6.75c1.857 0 3.356 1.511 3.356 3.382zM178.561 34.378c0 1.202.966 2.143 2.168 2.143 1.189 0 2.13-.966 2.13-2.143a2.135 2.135 0 00-2.13-2.155c-1.177 0-2.168.966-2.168 2.155zm5.524 0c0 1.87-1.499 3.381-3.356 3.381-1.87 0-3.381-1.51-3.381-3.38s1.51-3.382 3.38-3.382c1.858 0 3.357 1.511 3.357 3.381zM265.155 34.378c0 1.202.966 2.143 2.167 2.143 1.189 0 2.118-.966 2.118-2.143 0-1.189-.93-2.155-2.118-2.155-1.177 0-2.167.966-2.167 2.155zm5.523 0c0 1.87-1.498 3.381-3.356 3.381-1.87 0-3.393-1.51-3.393-3.38s1.523-3.382 3.393-3.382c1.858 0 3.356 1.511 3.356 3.381zM265.155 57.847c0 1.201.966 2.143 2.167 2.143 1.189 0 2.118-.966 2.118-2.143 0-1.201-.93-2.155-2.118-2.155-1.177 0-2.167.954-2.167 2.155zm5.523 0a3.362 3.362 0 01-3.356 3.369c-1.87 0-3.393-1.511-3.393-3.369a3.388 3.388 0 013.393-3.38c1.858 0 3.356 1.51 3.356 3.38zM70.122 152.243a2.13 2.13 0 002.155 2.142 2.143 2.143 0 002.142-2.142c0-1.19-.953-2.168-2.142-2.168-1.177 0-2.155.979-2.155 2.168zm5.523 0c0 1.857-1.51 3.368-3.368 3.368s-3.381-1.51-3.381-3.368c0-1.87 1.523-3.381 3.38-3.381s3.37 1.51 3.37 3.38z"/></g></svg>